<svg width="348" height="369" viewBox="0 0 348 369" fill="none" xmlns="http://www.w3.org/2000/svg">
<g style="mix-blend-mode:multiply">
<path d="M155.225 199.287C158.062 199.287 160.33 201.596 160.33 204.398C160.33 207.201 158.024 209.51 155.225 209.51C152.427 209.51 150.121 207.201 150.121 204.398C150.121 201.596 152.389 199.287 155.225 199.287Z" fill="#DA1585" fill-opacity="0.5"/>
<path d="M155.225 219.242C158.062 219.242 160.33 221.552 160.33 224.354C160.33 227.156 158.024 229.465 155.225 229.465C152.427 229.465 150.121 227.156 150.121 224.354C150.121 221.552 152.389 219.242 155.225 219.242Z" fill="#DA1585" fill-opacity="0.5"/>
<path d="M155.225 259.076C158.062 259.076 160.33 261.386 160.33 264.188C160.33 267.028 158.024 269.3 155.225 269.3C152.427 269.3 150.121 266.99 150.121 264.188C150.121 261.386 152.389 259.076 155.225 259.076Z" fill="#DA1585" fill-opacity="0.5"/>
<path d="M155.225 239.159C158.062 239.159 160.33 241.469 160.33 244.271C160.33 247.073 158.024 249.383 155.225 249.383C152.427 249.383 150.121 247.073 150.121 244.271C150.121 241.469 152.389 239.159 155.225 239.159Z" fill="#DA1585" fill-opacity="0.5"/>
<path d="M155.225 179.369C158.062 179.369 160.33 181.679 160.33 184.481C160.33 187.321 158.024 189.593 155.225 189.593C152.427 189.593 150.121 187.283 150.121 184.481C150.121 181.679 152.389 179.369 155.225 179.369Z" fill="#DA1585" fill-opacity="0.5"/>
<path d="M155.225 159.452C158.062 159.452 160.33 161.762 160.33 164.564C160.33 167.404 158.024 169.676 155.225 169.676C152.427 169.676 150.121 167.366 150.121 164.564C150.121 161.724 152.389 159.452 155.225 159.452Z" fill="#DA1585" fill-opacity="0.5"/>
<path d="M136.47 318.866C139.306 318.866 141.575 321.176 141.575 323.978C141.575 326.818 139.268 329.09 136.47 329.09C133.634 329.09 131.365 326.78 131.365 323.978C131.327 321.176 133.634 318.866 136.47 318.866Z" fill="#DA1585" fill-opacity="0.5"/>
<path d="M136.47 298.949C139.306 298.949 141.575 301.259 141.575 304.061C141.575 306.901 139.268 309.172 136.47 309.172C133.634 309.172 131.365 306.863 131.365 304.061C131.327 301.259 133.634 298.949 136.47 298.949Z" fill="#DA1585" fill-opacity="0.5"/>
<path d="M173.981 318.866C176.817 318.866 179.086 321.176 179.086 323.978C179.086 326.818 176.779 329.09 173.981 329.09C171.145 329.09 168.876 326.78 168.876 323.978C168.876 321.176 171.183 318.866 173.981 318.866Z" fill="#DA1585" fill-opacity="0.5"/>
<path d="M136.47 358.739C139.306 358.739 141.575 361.048 141.575 363.85C141.575 366.69 139.268 368.962 136.47 368.962C133.634 368.962 131.365 366.652 131.365 363.85C131.327 361.048 133.634 358.739 136.47 358.739Z" fill="#DA1585" fill-opacity="0.5"/>
<path d="M136.47 338.821C139.306 338.821 141.575 341.131 141.575 343.933C141.575 346.773 139.268 349.045 136.47 349.045C133.634 349.045 131.365 346.735 131.365 343.933C131.327 341.093 133.634 338.821 136.47 338.821Z" fill="#DA1585" fill-opacity="0.5"/>
<path d="M155.225 298.949C158.062 298.949 160.33 301.259 160.33 304.061C160.33 306.901 158.024 309.172 155.225 309.172C152.427 309.172 150.121 306.863 150.121 304.061C150.121 301.259 152.389 298.949 155.225 298.949Z" fill="#DA1585" fill-opacity="0.5"/>
<path d="M173.981 259.076C176.817 259.076 179.086 261.386 179.086 264.188C179.086 267.028 176.779 269.3 173.981 269.3C171.145 269.3 168.876 266.99 168.876 264.188C168.876 261.386 171.183 259.076 173.981 259.076Z" fill="#DA1585" fill-opacity="0.5"/>
<path d="M173.981 239.159C176.817 239.159 179.086 241.469 179.086 244.271C179.086 247.073 176.779 249.383 173.981 249.383C171.145 249.383 168.876 247.073 168.876 244.271C168.876 241.469 171.183 239.159 173.981 239.159Z" fill="#DA1585" fill-opacity="0.5"/>
<path d="M173.981 219.242C176.817 219.242 179.086 221.552 179.086 224.354C179.086 227.156 176.779 229.465 173.981 229.465C171.145 229.465 168.876 227.156 168.876 224.354C168.876 221.552 171.183 219.242 173.981 219.242Z" fill="#DA1585" fill-opacity="0.5"/>
<path d="M173.981 279.031C176.817 279.031 179.086 281.341 179.086 284.143C179.086 286.983 176.779 289.255 173.981 289.255C171.145 289.255 168.876 286.945 168.876 284.143C168.876 281.303 171.183 279.031 173.981 279.031Z" fill="#DA1585" fill-opacity="0.5"/>
<path d="M136.47 279.031C139.306 279.031 141.575 281.341 141.575 284.143C141.575 286.983 139.268 289.255 136.47 289.255C133.634 289.255 131.365 286.945 131.365 284.143C131.327 281.303 133.634 279.031 136.47 279.031Z" fill="#DA1585" fill-opacity="0.5"/>
<path d="M173.981 298.949C176.817 298.949 179.086 301.259 179.086 304.061C179.086 306.901 176.779 309.172 173.981 309.172C171.145 309.172 168.876 306.863 168.876 304.061C168.876 301.259 171.183 298.949 173.981 298.949Z" fill="#DA1585" fill-opacity="0.5"/>
<path d="M173.981 199.287C176.817 199.287 179.086 201.596 179.086 204.398C179.086 207.201 176.779 209.51 173.981 209.51C171.145 209.51 168.876 207.201 168.876 204.398C168.876 201.596 171.183 199.287 173.981 199.287Z" fill="#DA1585" fill-opacity="0.5"/>
<path d="M155.225 318.866C158.062 318.866 160.33 321.176 160.33 323.978C160.33 326.818 158.024 329.09 155.225 329.09C152.427 329.09 150.121 326.78 150.121 323.978C150.121 321.176 152.389 318.866 155.225 318.866Z" fill="#DA1585" fill-opacity="0.5"/>
<path d="M155.225 338.821C158.062 338.821 160.33 341.131 160.33 343.933C160.33 346.773 158.024 349.045 155.225 349.045C152.427 349.045 150.121 346.735 150.121 343.933C150.121 341.093 152.389 338.821 155.225 338.821Z" fill="#DA1585" fill-opacity="0.5"/>
<path d="M173.981 179.369C176.817 179.369 179.086 181.679 179.086 184.481C179.086 187.321 176.779 189.593 173.981 189.593C171.145 189.593 168.876 187.283 168.876 184.481C168.876 181.679 171.183 179.369 173.981 179.369Z" fill="#DA1585" fill-opacity="0.5"/>
<path d="M155.225 358.739C158.062 358.739 160.33 361.048 160.33 363.85C160.33 366.69 158.024 368.962 155.225 368.962C152.427 368.962 150.121 366.652 150.121 363.85C150.121 361.048 152.389 358.739 155.225 358.739Z" fill="#DA1585" fill-opacity="0.5"/>
<path d="M136.47 179.369C139.306 179.369 141.575 181.679 141.575 184.481C141.575 187.321 139.268 189.593 136.47 189.593C133.634 189.593 131.365 187.283 131.365 184.481C131.327 181.679 133.634 179.369 136.47 179.369Z" fill="#DA1585" fill-opacity="0.5"/>
<path d="M117.714 199.287C120.55 199.287 122.819 201.596 122.819 204.398C122.819 207.201 120.512 209.51 117.714 209.51C114.878 209.51 112.609 207.201 112.609 204.398C112.609 201.596 114.878 199.287 117.714 199.287Z" fill="#DA1585" fill-opacity="0.5"/>
<path d="M117.714 219.242C120.55 219.242 122.819 221.552 122.819 224.354C122.819 227.156 120.512 229.465 117.714 229.465C114.878 229.465 112.609 227.156 112.609 224.354C112.609 221.552 114.878 219.242 117.714 219.242Z" fill="#DA1585" fill-opacity="0.5"/>
<path d="M117.714 279.031C120.55 279.031 122.819 281.341 122.819 284.143C122.819 286.983 120.512 289.255 117.714 289.255C114.878 289.255 112.609 286.945 112.609 284.143C112.572 281.303 114.878 279.031 117.714 279.031Z" fill="#DA1585" fill-opacity="0.5"/>
<path d="M117.714 179.369C120.55 179.369 122.819 181.679 122.819 184.481C122.819 187.321 120.512 189.593 117.714 189.593C114.878 189.593 112.609 187.283 112.609 184.481C112.572 181.679 114.878 179.369 117.714 179.369Z" fill="#DA1585" fill-opacity="0.5"/>
<path d="M117.714 259.076C120.55 259.076 122.819 261.386 122.819 264.188C122.819 267.028 120.512 269.3 117.714 269.3C114.878 269.3 112.609 266.99 112.609 264.188C112.572 261.386 114.878 259.076 117.714 259.076Z" fill="#DA1585" fill-opacity="0.5"/>
<path d="M117.714 239.159C120.55 239.159 122.819 241.469 122.819 244.271C122.819 247.073 120.512 249.383 117.714 249.383C114.878 249.383 112.609 247.073 112.609 244.271C112.609 241.469 114.878 239.159 117.714 239.159Z" fill="#DA1585" fill-opacity="0.5"/>
<path d="M98.9208 358.739C101.757 358.739 104.026 361.048 104.026 363.85C104.026 366.69 101.719 368.962 98.9208 368.962C96.1225 368.962 93.8159 366.652 93.8159 363.85C93.8159 361.048 96.1225 358.739 98.9208 358.739Z" fill="#DA1585" fill-opacity="0.5"/>
<path d="M98.9208 338.821C101.757 338.821 104.026 341.131 104.026 343.933C104.026 346.773 101.719 349.045 98.9208 349.045C96.1225 349.045 93.8159 346.735 93.8159 343.933C93.8159 341.093 96.1225 338.821 98.9208 338.821Z" fill="#DA1585" fill-opacity="0.5"/>
<path d="M117.714 119.58C120.55 119.58 122.819 121.889 122.819 124.691C122.819 127.531 120.512 129.803 117.714 129.803C114.878 129.803 112.609 127.493 112.609 124.691C112.572 121.889 114.878 119.58 117.714 119.58Z" fill="#DA1585" fill-opacity="0.5"/>
<path d="M117.714 139.497C120.55 139.497 122.819 141.807 122.819 144.609C122.819 147.449 120.512 149.721 117.714 149.721C114.878 149.721 112.609 147.411 112.609 144.609C112.572 141.807 114.878 139.497 117.714 139.497Z" fill="#DA1585" fill-opacity="0.5"/>
<path d="M117.714 159.452C120.55 159.452 122.819 161.762 122.819 164.564C122.819 167.404 120.512 169.676 117.714 169.676C114.878 169.676 112.609 167.366 112.609 164.564C112.572 161.724 114.878 159.452 117.714 159.452Z" fill="#DA1585" fill-opacity="0.5"/>
<path d="M136.47 239.159C139.306 239.159 141.575 241.469 141.575 244.271C141.575 247.073 139.268 249.383 136.47 249.383C133.634 249.383 131.365 247.073 131.365 244.271C131.365 241.469 133.634 239.159 136.47 239.159Z" fill="#DA1585" fill-opacity="0.5"/>
<path d="M136.47 199.287C139.306 199.287 141.575 201.596 141.575 204.398C141.575 207.201 139.268 209.51 136.47 209.51C133.634 209.51 131.365 207.201 131.365 204.398C131.365 201.596 133.634 199.287 136.47 199.287Z" fill="#DA1585" fill-opacity="0.5"/>
<path d="M98.9208 318.866C101.757 318.866 104.026 321.176 104.026 323.978C104.026 326.818 101.719 329.09 98.9208 329.09C96.1225 329.09 93.8159 326.78 93.8159 323.978C93.8159 321.176 96.1225 318.866 98.9208 318.866Z" fill="#DA1585" fill-opacity="0.5"/>
<path d="M136.47 259.076C139.306 259.076 141.575 261.386 141.575 264.188C141.575 267.028 139.268 269.3 136.47 269.3C133.634 269.3 131.365 266.99 131.365 264.188C131.327 261.386 133.634 259.076 136.47 259.076Z" fill="#DA1585" fill-opacity="0.5"/>
<path d="M136.47 159.452C139.306 159.452 141.575 161.762 141.575 164.564C141.575 167.404 139.268 169.676 136.47 169.676C133.634 169.676 131.365 167.366 131.365 164.564C131.327 161.724 133.634 159.452 136.47 159.452Z" fill="#DA1585" fill-opacity="0.5"/>
<path d="M136.47 219.242C139.306 219.242 141.575 221.552 141.575 224.354C141.575 227.156 139.268 229.465 136.47 229.465C133.634 229.465 131.365 227.156 131.365 224.354C131.365 221.552 133.634 219.242 136.47 219.242Z" fill="#DA1585" fill-opacity="0.5"/>
<path d="M117.714 318.866C120.55 318.866 122.819 321.176 122.819 323.978C122.819 326.818 120.512 329.09 117.714 329.09C114.878 329.09 112.609 326.78 112.609 323.978C112.572 321.176 114.878 318.866 117.714 318.866Z" fill="#DA1585" fill-opacity="0.5"/>
<path d="M117.714 298.949C120.55 298.949 122.819 301.259 122.819 304.061C122.819 306.901 120.512 309.172 117.714 309.172C114.878 309.172 112.609 306.863 112.609 304.061C112.572 301.259 114.878 298.949 117.714 298.949Z" fill="#DA1585" fill-opacity="0.5"/>
<path d="M136.47 139.497C139.306 139.497 141.575 141.807 141.575 144.609C141.575 147.449 139.268 149.721 136.47 149.721C133.634 149.721 131.365 147.411 131.365 144.609C131.327 141.807 133.634 139.497 136.47 139.497Z" fill="#DA1585" fill-opacity="0.5"/>
<path d="M117.714 338.821C120.55 338.821 122.819 341.131 122.819 343.933C122.819 346.773 120.512 349.045 117.714 349.045C114.878 349.045 112.609 346.735 112.609 343.933C112.572 341.093 114.878 338.821 117.714 338.821Z" fill="#DA1585" fill-opacity="0.5"/>
<path d="M117.714 358.739C120.55 358.739 122.819 361.048 122.819 363.85C122.819 366.69 120.512 368.962 117.714 368.962C114.878 368.962 112.609 366.652 112.609 363.85C112.572 361.048 114.878 358.739 117.714 358.739Z" fill="#DA1585" fill-opacity="0.5"/>
<path d="M267.835 358.739C270.671 358.739 272.94 361.048 272.94 363.85C272.94 366.69 270.633 368.962 267.835 368.962C264.999 368.962 262.73 366.652 262.73 363.85C262.692 361.048 264.999 358.739 267.835 358.739Z" fill="#DA1585" fill-opacity="0.5"/>
<path d="M249.041 349.045C246.222 349.045 243.937 346.756 243.937 343.933C243.937 341.11 246.222 338.821 249.041 338.821C251.861 338.821 254.146 341.11 254.146 343.933C254.146 346.756 251.861 349.045 249.041 349.045Z" fill="#DA1585" fill-opacity="0.5"/>
<path d="M249.041 358.739C251.877 358.739 254.146 361.048 254.146 363.85C254.146 366.69 251.84 368.962 249.041 368.962C246.243 368.962 243.937 366.652 243.937 363.85C243.937 361.048 246.243 358.739 249.041 358.739Z" fill="#DA1585" fill-opacity="0.5"/>
<path d="M267.835 279.031C270.671 279.031 272.94 281.341 272.94 284.143C272.94 286.983 270.633 289.255 267.835 289.255C264.999 289.255 262.73 286.945 262.73 284.143C262.692 281.303 264.999 279.031 267.835 279.031Z" fill="#DA1585" fill-opacity="0.5"/>
<path d="M267.835 298.949C270.671 298.949 272.94 301.259 272.94 304.061C272.94 306.901 270.633 309.172 267.835 309.172C264.999 309.172 262.73 306.863 262.73 304.061C262.692 301.259 264.999 298.949 267.835 298.949Z" fill="#DA1585" fill-opacity="0.5"/>
<path d="M173.981 338.821C176.817 338.821 179.086 341.131 179.086 343.933C179.086 346.773 176.779 349.045 173.981 349.045C171.145 349.045 168.876 346.735 168.876 343.933C168.876 341.093 171.183 338.821 173.981 338.821Z" fill="#DA1585" fill-opacity="0.5"/>
<path d="M230.286 358.739C233.122 358.739 235.391 361.048 235.391 363.85C235.391 366.69 233.084 368.962 230.286 368.962C227.45 368.962 225.181 366.652 225.181 363.85C225.181 361.048 227.45 358.739 230.286 358.739Z" fill="#DA1585" fill-opacity="0.5"/>
<path d="M267.835 338.821C270.671 338.821 272.94 341.131 272.94 343.933C272.94 346.773 270.633 349.045 267.835 349.045C264.999 349.045 262.73 346.735 262.73 343.933C262.692 341.093 264.999 338.821 267.835 338.821Z" fill="#DA1585" fill-opacity="0.5"/>
<path d="M249.041 329.128C246.222 329.128 243.937 326.839 243.937 324.016C243.937 321.192 246.222 318.904 249.041 318.904C251.861 318.904 254.146 321.192 254.146 324.016C254.146 326.839 251.861 329.128 249.041 329.128Z" fill="#DA1585" fill-opacity="0.5"/>
<path d="M249.041 259.076C251.877 259.076 254.146 261.386 254.146 264.188C254.146 267.028 251.84 269.3 249.041 269.3C246.243 269.3 243.937 266.99 243.937 264.188C243.937 261.386 246.243 259.076 249.041 259.076Z" fill="#DA1585" fill-opacity="0.5"/>
<path d="M249.041 279.031C251.877 279.031 254.146 281.341 254.146 284.143C254.146 286.983 251.84 289.255 249.041 289.255C246.243 289.255 243.937 286.945 243.937 284.143C243.937 281.303 246.243 279.031 249.041 279.031Z" fill="#DA1585" fill-opacity="0.5"/>
<path d="M249.041 309.172C246.222 309.172 243.937 306.884 243.937 304.061C243.937 301.237 246.222 298.949 249.041 298.949C251.861 298.949 254.146 301.237 254.146 304.061C254.146 306.884 251.861 309.172 249.041 309.172Z" fill="#DA1585" fill-opacity="0.5"/>
<path d="M286.59 298.949C289.426 298.949 291.695 301.259 291.695 304.061C291.695 306.901 289.389 309.172 286.59 309.172C283.792 309.172 281.486 306.863 281.486 304.061C281.486 301.259 283.754 298.949 286.59 298.949Z" fill="#DA1585" fill-opacity="0.5"/>
<path d="M98.9208 298.949C101.757 298.949 104.026 301.259 104.026 304.061C104.026 306.901 101.719 309.172 98.9208 309.172C96.1225 309.172 93.8159 306.863 93.8159 304.061C93.8159 301.259 96.1225 298.949 98.9208 298.949Z" fill="#DA1585" fill-opacity="0.5"/>
<path d="M324.102 338.821C326.938 338.821 329.207 341.131 329.207 343.933C329.207 346.773 326.9 349.045 324.102 349.045C321.266 349.045 318.997 346.735 318.997 343.933C318.997 341.093 321.303 338.821 324.102 338.821Z" fill="#DA1585" fill-opacity="0.5"/>
<path d="M305.346 349.045C302.527 349.045 300.241 346.756 300.241 343.933C300.241 341.11 302.527 338.821 305.346 338.821C308.165 338.821 310.451 341.11 310.451 343.933C310.451 346.756 308.165 349.045 305.346 349.045Z" fill="#DA1585" fill-opacity="0.5"/>
<path d="M324.102 358.739C326.938 358.739 329.207 361.048 329.207 363.85C329.207 366.69 326.9 368.962 324.102 368.962C321.266 368.962 318.997 366.652 318.997 363.85C318.997 361.048 321.303 358.739 324.102 358.739Z" fill="#DA1585" fill-opacity="0.5"/>
<path d="M342.895 358.739C345.731 358.739 348 361.048 348 363.85C348 366.69 345.693 368.962 342.895 368.962C340.097 368.962 337.79 366.652 337.79 363.85C337.752 361.048 340.059 358.739 342.895 358.739Z" fill="#DA1585" fill-opacity="0.5"/>
<path d="M305.346 358.739C308.182 358.739 310.451 361.048 310.451 363.85C310.451 366.69 308.144 368.962 305.346 368.962C302.51 368.962 300.241 366.652 300.241 363.85C300.241 361.048 302.51 358.739 305.346 358.739Z" fill="#DA1585" fill-opacity="0.5"/>
<path d="M286.59 318.866C289.426 318.866 291.695 321.176 291.695 323.978C291.695 326.818 289.389 329.09 286.59 329.09C283.792 329.09 281.486 326.78 281.486 323.978C281.486 321.176 283.754 318.866 286.59 318.866Z" fill="#DA1585" fill-opacity="0.5"/>
<path d="M305.346 329.128C302.527 329.128 300.241 326.839 300.241 324.016C300.241 321.192 302.527 318.904 305.346 318.904C308.165 318.904 310.451 321.192 310.451 324.016C310.451 326.839 308.165 329.128 305.346 329.128Z" fill="#DA1585" fill-opacity="0.5"/>
<path d="M230.286 338.821C233.122 338.821 235.391 341.131 235.391 343.933C235.391 346.773 233.084 349.045 230.286 349.045C227.45 349.045 225.181 346.735 225.181 343.933C225.181 341.093 227.45 338.821 230.286 338.821Z" fill="#DA1585" fill-opacity="0.5"/>
<path d="M286.59 338.821C289.426 338.821 291.695 341.131 291.695 343.933C291.695 346.773 289.389 349.045 286.59 349.045C283.792 349.045 281.486 346.735 281.486 343.933C281.486 341.093 283.754 338.821 286.59 338.821Z" fill="#DA1585" fill-opacity="0.5"/>
<path d="M286.59 358.739C289.426 358.739 291.695 361.048 291.695 363.85C291.695 366.69 289.389 368.962 286.59 368.962C283.792 368.962 281.486 366.652 281.486 363.85C281.486 361.048 283.754 358.739 286.59 358.739Z" fill="#DA1585" fill-opacity="0.5"/>
<path d="M267.835 318.866C270.671 318.866 272.94 321.176 272.94 323.978C272.94 326.818 270.633 329.09 267.835 329.09C264.999 329.09 262.73 326.78 262.73 323.978C262.692 321.176 264.999 318.866 267.835 318.866Z" fill="#DA1585" fill-opacity="0.5"/>
<path d="M230.286 318.866C233.122 318.866 235.391 321.176 235.391 323.978C235.391 326.818 233.084 329.09 230.286 329.09C227.45 329.09 225.181 326.78 225.181 323.978C225.181 321.176 227.45 318.866 230.286 318.866Z" fill="#DA1585" fill-opacity="0.5"/>
<path d="M192.775 309.172C189.955 309.172 187.67 306.884 187.67 304.061C187.67 301.237 189.955 298.949 192.775 298.949C195.594 298.949 197.879 301.237 197.879 304.061C197.879 306.884 195.594 309.172 192.775 309.172Z" fill="#DA1585" fill-opacity="0.5"/>
<path d="M192.775 329.128C189.955 329.128 187.67 326.839 187.67 324.016C187.67 321.192 189.955 318.904 192.775 318.904C195.594 318.904 197.879 321.192 197.879 324.016C197.879 326.839 195.594 329.128 192.775 329.128Z" fill="#DA1585" fill-opacity="0.5"/>
<path d="M192.775 358.739C195.611 358.739 197.879 361.048 197.879 363.85C197.879 366.69 195.573 368.962 192.775 368.962C189.939 368.962 187.67 366.652 187.67 363.85C187.632 361.048 189.939 358.739 192.775 358.739Z" fill="#DA1585" fill-opacity="0.5"/>
<path d="M192.775 349.045C189.955 349.045 187.67 346.756 187.67 343.933C187.67 341.11 189.955 338.821 192.775 338.821C195.594 338.821 197.879 341.11 197.879 343.933C197.879 346.756 195.594 349.045 192.775 349.045Z" fill="#DA1585" fill-opacity="0.5"/>
<path d="M211.53 219.242C214.366 219.242 216.635 221.552 216.635 224.354C216.635 227.156 214.328 229.465 211.53 229.465C208.732 229.465 206.425 227.156 206.425 224.354C206.425 221.552 208.694 219.242 211.53 219.242Z" fill="#DA1585" fill-opacity="0.5"/>
<path d="M192.775 259.076C195.611 259.076 197.879 261.386 197.879 264.188C197.879 267.028 195.573 269.3 192.775 269.3C189.939 269.3 187.67 266.99 187.67 264.188C187.632 261.386 189.939 259.076 192.775 259.076Z" fill="#DA1585" fill-opacity="0.5"/>
<path d="M192.775 199.287C195.611 199.287 197.879 201.596 197.879 204.398C197.879 207.201 195.573 209.51 192.775 209.51C189.939 209.51 187.67 207.201 187.67 204.398C187.67 201.596 189.939 199.287 192.775 199.287Z" fill="#DA1585" fill-opacity="0.5"/>
<path d="M173.981 358.739C176.817 358.739 179.086 361.048 179.086 363.85C179.086 366.69 176.779 368.962 173.981 368.962C171.145 368.962 168.876 366.652 168.876 363.85C168.876 361.048 171.183 358.739 173.981 358.739Z" fill="#DA1585" fill-opacity="0.5"/>
<path d="M192.775 239.159C195.611 239.159 197.879 241.469 197.879 244.271C197.879 247.073 195.573 249.383 192.775 249.383C189.939 249.383 187.67 247.073 187.67 244.271C187.67 241.469 189.939 239.159 192.775 239.159Z" fill="#DA1585" fill-opacity="0.5"/>
<path d="M192.775 219.242C195.611 219.242 197.879 221.552 197.879 224.354C197.879 227.156 195.573 229.465 192.775 229.465C189.939 229.465 187.67 227.156 187.67 224.354C187.67 221.552 189.939 219.242 192.775 219.242Z" fill="#DA1585" fill-opacity="0.5"/>
<path d="M192.775 279.031C195.611 279.031 197.879 281.341 197.879 284.143C197.879 286.983 195.573 289.255 192.775 289.255C189.939 289.255 187.67 286.945 187.67 284.143C187.632 281.303 189.939 279.031 192.775 279.031Z" fill="#DA1585" fill-opacity="0.5"/>
<path d="M230.286 259.076C233.122 259.076 235.391 261.386 235.391 264.188C235.391 267.028 233.084 269.3 230.286 269.3C227.45 269.3 225.181 266.99 225.181 264.188C225.181 261.386 227.45 259.076 230.286 259.076Z" fill="#DA1585" fill-opacity="0.5"/>
<path d="M230.286 239.159C233.122 239.159 235.391 241.469 235.391 244.271C235.391 247.073 233.084 249.383 230.286 249.383C227.45 249.383 225.181 247.073 225.181 244.271C225.181 241.469 227.45 239.159 230.286 239.159Z" fill="#DA1585" fill-opacity="0.5"/>
<path d="M230.286 279.031C233.122 279.031 235.391 281.341 235.391 284.143C235.391 286.983 233.084 289.255 230.286 289.255C227.45 289.255 225.181 286.945 225.181 284.143C225.181 281.303 227.45 279.031 230.286 279.031Z" fill="#DA1585" fill-opacity="0.5"/>
<path d="M230.286 298.949C233.122 298.949 235.391 301.259 235.391 304.061C235.391 306.901 233.084 309.172 230.286 309.172C227.45 309.172 225.181 306.863 225.181 304.061C225.181 301.259 227.45 298.949 230.286 298.949Z" fill="#DA1585" fill-opacity="0.5"/>
<path d="M211.53 239.159C214.366 239.159 216.635 241.469 216.635 244.271C216.635 247.073 214.328 249.383 211.53 249.383C208.732 249.383 206.425 247.073 206.425 244.271C206.425 241.469 208.694 239.159 211.53 239.159Z" fill="#DA1585" fill-opacity="0.5"/>
<path d="M211.53 358.739C214.366 358.739 216.635 361.048 216.635 363.85C216.635 366.69 214.328 368.962 211.53 368.962C208.732 368.962 206.425 366.652 206.425 363.85C206.425 361.048 208.694 358.739 211.53 358.739Z" fill="#DA1585" fill-opacity="0.5"/>
<path d="M211.53 259.076C214.366 259.076 216.635 261.386 216.635 264.188C216.635 267.028 214.328 269.3 211.53 269.3C208.732 269.3 206.425 266.99 206.425 264.188C206.425 261.386 208.694 259.076 211.53 259.076Z" fill="#DA1585" fill-opacity="0.5"/>
<path d="M211.53 338.821C214.366 338.821 216.635 341.131 216.635 343.933C216.635 346.773 214.328 349.045 211.53 349.045C208.732 349.045 206.425 346.735 206.425 343.933C206.425 341.093 208.694 338.821 211.53 338.821Z" fill="#DA1585" fill-opacity="0.5"/>
<path d="M211.53 279.031C214.366 279.031 216.635 281.341 216.635 284.143C216.635 286.983 214.328 289.255 211.53 289.255C208.732 289.255 206.425 286.945 206.425 284.143C206.425 281.303 208.694 279.031 211.53 279.031Z" fill="#DA1585" fill-opacity="0.5"/>
<path d="M211.53 298.949C214.366 298.949 216.635 301.259 216.635 304.061C216.635 306.901 214.328 309.172 211.53 309.172C208.732 309.172 206.425 306.863 206.425 304.061C206.425 301.259 208.694 298.949 211.53 298.949Z" fill="#DA1585" fill-opacity="0.5"/>
<path d="M211.53 318.866C214.366 318.866 216.635 321.176 216.635 323.978C216.635 326.818 214.328 329.09 211.53 329.09C208.732 329.09 206.425 326.78 206.425 323.978C206.425 321.176 208.694 318.866 211.53 318.866Z" fill="#DA1585" fill-opacity="0.5"/>
<path d="M155.225 279.031C158.062 279.031 160.33 281.341 160.33 284.143C160.33 286.983 158.024 289.255 155.225 289.255C152.427 289.255 150.121 286.945 150.121 284.143C150.121 281.303 152.389 279.031 155.225 279.031Z" fill="#DA1585" fill-opacity="0.5"/>
<path d="M23.8605 219.242C26.6965 219.242 28.9653 221.552 28.9653 224.354C28.9653 227.156 26.6587 229.465 23.8605 229.465C21.0244 229.465 18.7556 227.156 18.7556 224.354C18.7556 221.552 21.0623 219.242 23.8605 219.242Z" fill="#DA1585" fill-opacity="0.5"/>
<path d="M23.8605 99.6621C26.6965 99.6621 28.9653 101.972 28.9653 104.774C28.9653 107.614 26.6587 109.886 23.8605 109.886C21.0244 109.886 18.7556 107.576 18.7556 104.774C18.7556 101.934 21.0623 99.6621 23.8605 99.6621Z" fill="#DA1585" fill-opacity="0.5"/>
<path d="M23.8605 239.159C26.6965 239.159 28.9653 241.469 28.9653 244.271C28.9653 247.073 26.6587 249.383 23.8605 249.383C21.0244 249.383 18.7556 247.073 18.7556 244.271C18.7556 241.469 21.0623 239.159 23.8605 239.159Z" fill="#DA1585" fill-opacity="0.5"/>
<path d="M23.8605 298.949C26.6965 298.949 28.9653 301.259 28.9653 304.061C28.9653 306.901 26.6587 309.172 23.8605 309.172C21.0244 309.172 18.7556 306.863 18.7556 304.061C18.7556 301.259 21.0623 298.949 23.8605 298.949Z" fill="#DA1585" fill-opacity="0.5"/>
<path d="M23.8605 318.866C26.6965 318.866 28.9653 321.176 28.9653 323.978C28.9653 326.818 26.6587 329.09 23.8605 329.09C21.0244 329.09 18.7556 326.78 18.7556 323.978C18.7556 321.176 21.0623 318.866 23.8605 318.866Z" fill="#DA1585" fill-opacity="0.5"/>
<path d="M23.8605 279.031C26.6965 279.031 28.9653 281.341 28.9653 284.143C28.9653 286.983 26.6587 289.255 23.8605 289.255C21.0244 289.255 18.7556 286.945 18.7556 284.143C18.7556 281.303 21.0623 279.031 23.8605 279.031Z" fill="#DA1585" fill-opacity="0.5"/>
<path d="M23.8605 139.497C26.6965 139.497 28.9653 141.807 28.9653 144.609C28.9653 147.449 26.6587 149.721 23.8605 149.721C21.0244 149.721 18.7556 147.411 18.7556 144.609C18.7556 141.807 21.0623 139.497 23.8605 139.497Z" fill="#DA1585" fill-opacity="0.5"/>
<path d="M42.6539 219.242C45.49 219.242 47.7588 221.552 47.7588 224.354C47.7588 227.156 45.4522 229.465 42.6539 229.465C39.8557 229.465 37.5491 227.156 37.5491 224.354C37.5491 221.552 39.8179 219.242 42.6539 219.242Z" fill="#DA1585" fill-opacity="0.5"/>
<path d="M23.8605 119.58C26.6965 119.58 28.9653 121.889 28.9653 124.691C28.9653 127.531 26.6587 129.803 23.8605 129.803C21.0244 129.803 18.7556 127.493 18.7556 124.691C18.7556 121.889 21.0623 119.58 23.8605 119.58Z" fill="#DA1585" fill-opacity="0.5"/>
<path d="M23.8605 179.369C26.6965 179.369 28.9653 181.679 28.9653 184.481C28.9653 187.321 26.6587 189.593 23.8605 189.593C21.0244 189.593 18.7556 187.283 18.7556 184.481C18.7556 181.679 21.0623 179.369 23.8605 179.369Z" fill="#DA1585" fill-opacity="0.5"/>
<path d="M23.8605 159.452C26.6965 159.452 28.9653 161.762 28.9653 164.564C28.9653 167.404 26.6587 169.676 23.8605 169.676C21.0244 169.676 18.7556 167.366 18.7556 164.564C18.7556 161.724 21.0623 159.452 23.8605 159.452Z" fill="#DA1585" fill-opacity="0.5"/>
<path d="M23.8605 259.076C26.6965 259.076 28.9653 261.386 28.9653 264.188C28.9653 267.028 26.6587 269.3 23.8605 269.3C21.0244 269.3 18.7556 266.99 18.7556 264.188C18.7556 261.386 21.0623 259.076 23.8605 259.076Z" fill="#DA1585" fill-opacity="0.5"/>
<path d="M42.6539 119.58C45.49 119.58 47.7588 121.889 47.7588 124.691C47.7588 127.531 45.4521 129.803 42.6539 129.803C39.8557 129.803 37.549 127.493 37.549 124.691C37.5112 121.889 39.8179 119.58 42.6539 119.58Z" fill="#DA1585" fill-opacity="0.5"/>
<path d="M42.6539 159.452C45.49 159.452 47.7588 161.762 47.7588 164.564C47.7588 167.404 45.4521 169.676 42.6539 169.676C39.8557 169.676 37.549 167.366 37.549 164.564C37.5112 161.724 39.8179 159.452 42.6539 159.452Z" fill="#DA1585" fill-opacity="0.5"/>
<path d="M42.6539 139.497C45.49 139.497 47.7588 141.807 47.7588 144.609C47.7588 147.449 45.4521 149.721 42.6539 149.721C39.8557 149.721 37.549 147.411 37.549 144.609C37.5112 141.807 39.8179 139.497 42.6539 139.497Z" fill="#DA1585" fill-opacity="0.5"/>
<path d="M23.8605 338.821C26.6965 338.821 28.9653 341.131 28.9653 343.933C28.9653 346.773 26.6587 349.045 23.8605 349.045C21.0244 349.045 18.7556 346.735 18.7556 343.933C18.7556 341.093 21.0623 338.821 23.8605 338.821Z" fill="#DA1585" fill-opacity="0.5"/>
<path d="M42.6539 179.369C45.49 179.369 47.7588 181.679 47.7588 184.481C47.7588 187.321 45.4521 189.593 42.6539 189.593C39.8557 189.593 37.549 187.283 37.549 184.481C37.5112 181.679 39.8179 179.369 42.6539 179.369Z" fill="#DA1585" fill-opacity="0.5"/>
<path d="M42.6539 199.287C45.49 199.287 47.7588 201.596 47.7588 204.398C47.7588 207.201 45.4522 209.51 42.6539 209.51C39.8557 209.51 37.5491 207.201 37.5491 204.398C37.5491 201.596 39.8179 199.287 42.6539 199.287Z" fill="#DA1585" fill-opacity="0.5"/>
<path d="M42.6539 39.8726C45.49 39.8726 47.7588 42.1824 47.7588 44.9844C47.7588 47.7865 45.4522 50.0963 42.6539 50.0963C39.8557 50.0963 37.5491 47.7865 37.5491 44.9844C37.5491 42.1824 39.8179 39.8726 42.6539 39.8726Z" fill="#DA1585" fill-opacity="0.5"/>
<path d="M23.8605 358.739C26.6965 358.739 28.9653 361.048 28.9653 363.85C28.9653 366.69 26.6587 368.962 23.8605 368.962C21.0244 368.962 18.7556 366.652 18.7556 363.85C18.7556 361.048 21.0623 358.739 23.8605 358.739Z" fill="#DA1585" fill-opacity="0.5"/>
<path d="M42.6539 59.7898C45.49 59.7898 47.7588 62.0996 47.7588 64.9016C47.7588 67.7416 45.4521 70.0135 42.6539 70.0135C39.8557 70.0135 37.549 67.7037 37.549 64.9016C37.5112 62.0996 39.8179 59.7898 42.6539 59.7898Z" fill="#DA1585" fill-opacity="0.5"/>
<path d="M42.6539 99.6621C45.49 99.6621 47.7588 101.972 47.7588 104.774C47.7588 107.614 45.4521 109.886 42.6539 109.886C39.8557 109.886 37.549 107.576 37.549 104.774C37.5112 101.934 39.8179 99.6621 42.6539 99.6621Z" fill="#DA1585" fill-opacity="0.5"/>
<path d="M42.6539 79.707C45.49 79.707 47.7588 82.0168 47.7588 84.8189C47.7588 87.6588 45.4521 89.9307 42.6539 89.9307C39.8557 89.9307 37.549 87.6209 37.549 84.8189C37.5112 82.0168 39.8179 79.707 42.6539 79.707Z" fill="#DA1585" fill-opacity="0.5"/>
<path d="M23.8605 199.287C26.6965 199.287 28.9653 201.596 28.9653 204.398C28.9653 207.201 26.6587 209.51 23.8605 209.51C21.0244 209.51 18.7556 207.201 18.7556 204.398C18.7556 201.596 21.0623 199.287 23.8605 199.287Z" fill="#DA1585" fill-opacity="0.5"/>
<path d="M5.10489 149.758C2.28557 149.758 6.10352e-05 147.47 6.10352e-05 144.647C6.10352e-05 141.823 2.28557 139.535 5.10489 139.535C7.92421 139.535 10.2097 141.823 10.2097 144.647C10.2097 147.47 7.92421 149.758 5.10489 149.758Z" fill="#DA1585" fill-opacity="0.5"/>
<path d="M23.8605 79.707C26.6965 79.707 28.9653 82.0168 28.9653 84.8189C28.9653 87.6588 26.6587 89.9307 23.8605 89.9307C21.0244 89.9307 18.7556 87.6209 18.7556 84.8189C18.7556 82.0168 21.0623 79.707 23.8605 79.707Z" fill="#DA1585" fill-opacity="0.5"/>
<path d="M5.10489 129.803C2.28557 129.803 6.10352e-05 127.515 6.10352e-05 124.691C6.10352e-05 121.868 2.28557 119.58 5.10489 119.58C7.92421 119.58 10.2097 121.868 10.2097 124.691C10.2097 127.515 7.92421 129.803 5.10489 129.803Z" fill="#DA1585" fill-opacity="0.5"/>
<path d="M5.10489 179.369C7.9409 179.369 10.2097 181.679 10.2097 184.481C10.2097 187.321 7.90309 189.593 5.10489 189.593C2.30669 189.593 6.10352e-05 187.283 6.10352e-05 184.481C6.10352e-05 181.679 2.26887 179.369 5.10489 179.369Z" fill="#DA1585" fill-opacity="0.5"/>
<path d="M5.10489 159.452C7.9409 159.452 10.2097 161.762 10.2097 164.564C10.2097 167.404 7.90309 169.676 5.10489 169.676C2.30669 169.676 6.10352e-05 167.366 6.10352e-05 164.564C6.10352e-05 161.724 2.26887 159.452 5.10489 159.452Z" fill="#DA1585" fill-opacity="0.5"/>
<path d="M5.10489 79.707C7.9409 79.707 10.2097 82.0168 10.2097 84.8189C10.2097 87.6588 7.90309 89.9307 5.10489 89.9307C2.30669 89.9307 6.10352e-05 87.6209 6.10352e-05 84.8189C6.10352e-05 82.0168 2.26887 79.707 5.10489 79.707Z" fill="#DA1585" fill-opacity="0.5"/>
<path d="M5.10489 19.9172C7.9409 19.9172 10.2097 22.227 10.2097 25.0291C10.2097 27.8311 7.90309 30.1409 5.10489 30.1409C2.30669 30.1409 6.10352e-05 27.8311 6.10352e-05 25.0291C6.10352e-05 22.227 2.26887 19.9172 5.10489 19.9172Z" fill="#DA1585" fill-opacity="0.5"/>
<path d="M5.10489 199.287C7.9409 199.287 10.2097 201.596 10.2097 204.398C10.2097 207.201 7.90309 209.51 5.10489 209.51C2.30669 209.51 6.10352e-05 207.201 6.10352e-05 204.398C6.10352e-05 201.596 2.26887 199.287 5.10489 199.287Z" fill="#DA1585" fill-opacity="0.5"/>
<path d="M5.10489 0C7.9409 0 10.2097 2.3098 10.2097 5.11185C10.2097 7.9139 7.90309 10.2237 5.10489 10.2237C2.30669 10.2237 6.10352e-05 7.9139 6.10352e-05 5.11185C6.10352e-05 2.3098 2.26887 0 5.10489 0Z" fill="#DA1585" fill-opacity="0.5"/>
<path d="M5.10489 59.7898C7.9409 59.7898 10.2097 62.0996 10.2097 64.9016C10.2097 67.7416 7.90309 70.0135 5.10489 70.0135C2.30669 70.0135 6.10352e-05 67.7037 6.10352e-05 64.9016C6.10352e-05 62.0996 2.26887 59.7898 5.10489 59.7898Z" fill="#DA1585" fill-opacity="0.5"/>
<path d="M5.10489 39.8726C7.9409 39.8726 10.2097 42.1824 10.2097 44.9844C10.2097 47.7865 7.90309 50.0963 5.10489 50.0963C2.30669 50.0963 6.10352e-05 47.7865 6.10352e-05 44.9844C6.10352e-05 42.1824 2.26887 39.8726 5.10489 39.8726Z" fill="#DA1585" fill-opacity="0.5"/>
<path d="M5.10489 109.886C2.28557 109.886 6.10352e-05 107.597 6.10352e-05 104.774C6.10352e-05 101.951 2.28557 99.6621 5.10489 99.6621C7.92421 99.6621 10.2097 101.951 10.2097 104.774C10.2097 107.597 7.92421 109.886 5.10489 109.886Z" fill="#DA1585" fill-opacity="0.5"/>
<path d="M5.10489 358.739C7.9409 358.739 10.2097 361.048 10.2097 363.85C10.2097 366.69 7.90309 368.962 5.10489 368.962C2.30669 368.962 6.10352e-05 366.652 6.10352e-05 363.85C6.10352e-05 361.048 2.26887 358.739 5.10489 358.739Z" fill="#DA1585" fill-opacity="0.5"/>
<path d="M5.10489 349.045C2.28557 349.045 6.10352e-05 346.756 6.10352e-05 343.933C6.10352e-05 341.11 2.28557 338.821 5.10489 338.821C7.92421 338.821 10.2097 341.11 10.2097 343.933C10.2097 346.756 7.92421 349.045 5.10489 349.045Z" fill="#DA1585" fill-opacity="0.5"/>
<path d="M23.8605 19.9172C26.6965 19.9172 28.9653 22.227 28.9653 25.0291C28.9653 27.8311 26.6587 30.1409 23.8605 30.1409C21.0244 30.1409 18.7556 27.8311 18.7556 25.0291C18.7556 22.227 21.0623 19.9172 23.8605 19.9172Z" fill="#DA1585" fill-opacity="0.5"/>
<path d="M5.10489 219.242C7.9409 219.242 10.2097 221.552 10.2097 224.354C10.2097 227.156 7.90309 229.465 5.10489 229.465C2.30669 229.465 6.10352e-05 227.156 6.10352e-05 224.354C6.10352e-05 221.552 2.26887 219.242 5.10489 219.242Z" fill="#DA1585" fill-opacity="0.5"/>
<path d="M23.8605 59.7898C26.6965 59.7898 28.9653 62.0996 28.9653 64.9016C28.9653 67.7416 26.6587 70.0135 23.8605 70.0135C21.0244 70.0135 18.7556 67.7037 18.7556 64.9016C18.7556 62.0996 21.0623 59.7898 23.8605 59.7898Z" fill="#DA1585" fill-opacity="0.5"/>
<path d="M23.8605 39.8726C26.6965 39.8726 28.9653 42.1824 28.9653 44.9844C28.9653 47.7865 26.6587 50.0963 23.8605 50.0963C21.0244 50.0963 18.7556 47.7865 18.7556 44.9844C18.7556 42.1824 21.0623 39.8726 23.8605 39.8726Z" fill="#DA1585" fill-opacity="0.5"/>
<path d="M5.10489 239.159C7.9409 239.159 10.2097 241.469 10.2097 244.271C10.2097 247.073 7.90309 249.383 5.10489 249.383C2.30669 249.383 6.10352e-05 247.073 6.10352e-05 244.271C6.10352e-05 241.469 2.26887 239.159 5.10489 239.159Z" fill="#DA1585" fill-opacity="0.5"/>
<path d="M5.10489 259.076C7.9409 259.076 10.2097 261.386 10.2097 264.188C10.2097 267.028 7.90309 269.3 5.10489 269.3C2.30669 269.3 6.10352e-05 266.99 6.10352e-05 264.188C6.10352e-05 261.386 2.26887 259.076 5.10489 259.076Z" fill="#DA1585" fill-opacity="0.5"/>
<path d="M5.10489 329.128C2.28557 329.128 6.10352e-05 326.839 6.10352e-05 324.016C6.10352e-05 321.192 2.28557 318.904 5.10489 318.904C7.92421 318.904 10.2097 321.192 10.2097 324.016C10.2097 326.839 7.92421 329.128 5.10489 329.128Z" fill="#DA1585" fill-opacity="0.5"/>
<path d="M5.10489 279.031C7.9409 279.031 10.2097 281.341 10.2097 284.143C10.2097 286.983 7.90309 289.255 5.10489 289.255C2.30669 289.255 6.10352e-05 286.945 6.10352e-05 284.143C6.10352e-05 281.303 2.26887 279.031 5.10489 279.031Z" fill="#DA1585" fill-opacity="0.5"/>
<path d="M5.10489 309.172C2.28557 309.172 6.10352e-05 306.884 6.10352e-05 304.061C6.10352e-05 301.237 2.28557 298.949 5.10489 298.949C7.92421 298.949 10.2097 301.237 10.2097 304.061C10.2097 306.884 7.92421 309.172 5.10489 309.172Z" fill="#DA1585" fill-opacity="0.5"/>
<path d="M80.1652 358.739C83.0012 358.739 85.27 361.048 85.27 363.85C85.27 366.69 82.9634 368.962 80.1652 368.962C77.3292 368.962 75.0603 366.652 75.0603 363.85C75.0603 361.048 77.3292 358.739 80.1652 358.739Z" fill="#DA1585" fill-opacity="0.5"/>
<path d="M80.1652 219.242C83.0012 219.242 85.27 221.552 85.27 224.354C85.27 227.156 82.9634 229.465 80.1652 229.465C77.3292 229.465 75.0603 227.156 75.0603 224.354C75.0603 221.552 77.3292 219.242 80.1652 219.242Z" fill="#DA1585" fill-opacity="0.5"/>
<path d="M80.1652 318.866C83.0012 318.866 85.27 321.176 85.27 323.978C85.27 326.818 82.9634 329.09 80.1652 329.09C77.3292 329.09 75.0603 326.78 75.0603 323.978C75.0603 321.176 77.3292 318.866 80.1652 318.866Z" fill="#DA1585" fill-opacity="0.5"/>
<path d="M80.1652 259.076C83.0012 259.076 85.27 261.386 85.27 264.188C85.27 267.028 82.9634 269.3 80.1652 269.3C77.3292 269.3 75.0603 266.99 75.0603 264.188C75.0603 261.386 77.3292 259.076 80.1652 259.076Z" fill="#DA1585" fill-opacity="0.5"/>
<path d="M80.1652 298.949C83.0012 298.949 85.27 301.259 85.27 304.061C85.27 306.901 82.9634 309.172 80.1652 309.172C77.3292 309.172 75.0603 306.863 75.0603 304.061C75.0603 301.259 77.3292 298.949 80.1652 298.949Z" fill="#DA1585" fill-opacity="0.5"/>
<path d="M80.1652 279.031C83.0012 279.031 85.27 281.341 85.27 284.143C85.27 286.983 82.9634 289.255 80.1652 289.255C77.3292 289.255 75.0603 286.945 75.0603 284.143C75.0603 281.303 77.3292 279.031 80.1652 279.031Z" fill="#DA1585" fill-opacity="0.5"/>
<path d="M80.1652 239.159C83.0012 239.159 85.27 241.469 85.27 244.271C85.27 247.073 82.9634 249.383 80.1652 249.383C77.3292 249.383 75.0603 247.073 75.0603 244.271C75.0603 241.469 77.3292 239.159 80.1652 239.159Z" fill="#DA1585" fill-opacity="0.5"/>
<path d="M80.1652 139.497C83.0012 139.497 85.27 141.807 85.27 144.609C85.27 147.449 82.9634 149.721 80.1652 149.721C77.3292 149.721 75.0603 147.411 75.0603 144.609C75.0603 141.807 77.3292 139.497 80.1652 139.497Z" fill="#DA1585" fill-opacity="0.5"/>
<path d="M80.1652 199.287C83.0012 199.287 85.27 201.596 85.27 204.398C85.27 207.201 82.9634 209.51 80.1652 209.51C77.3292 209.51 75.0603 207.201 75.0603 204.398C75.0603 201.596 77.3292 199.287 80.1652 199.287Z" fill="#DA1585" fill-opacity="0.5"/>
<path d="M80.1652 119.58C83.0012 119.58 85.27 121.889 85.27 124.691C85.27 127.531 82.9634 129.803 80.1652 129.803C77.3292 129.803 75.0603 127.493 75.0603 124.691C75.0603 121.889 77.3292 119.58 80.1652 119.58Z" fill="#DA1585" fill-opacity="0.5"/>
<path d="M80.1652 179.369C83.0012 179.369 85.27 181.679 85.27 184.481C85.27 187.321 82.9634 189.593 80.1652 189.593C77.3292 189.593 75.0603 187.283 75.0603 184.481C75.0603 181.679 77.3292 179.369 80.1652 179.369Z" fill="#DA1585" fill-opacity="0.5"/>
<path d="M80.1652 159.452C83.0012 159.452 85.27 161.762 85.27 164.564C85.27 167.404 82.9634 169.676 80.1652 169.676C77.3292 169.676 75.0603 167.366 75.0603 164.564C75.0603 161.724 77.3292 159.452 80.1652 159.452Z" fill="#DA1585" fill-opacity="0.5"/>
<path d="M98.9208 259.076C101.757 259.076 104.026 261.386 104.026 264.188C104.026 267.028 101.719 269.3 98.9208 269.3C96.1225 269.3 93.8159 266.99 93.8159 264.188C93.8159 261.386 96.1225 259.076 98.9208 259.076Z" fill="#DA1585" fill-opacity="0.5"/>
<path d="M98.9208 179.369C101.757 179.369 104.026 181.679 104.026 184.481C104.026 187.321 101.719 189.593 98.9208 189.593C96.1225 189.593 93.8159 187.283 93.8159 184.481C93.8159 181.679 96.1225 179.369 98.9208 179.369Z" fill="#DA1585" fill-opacity="0.5"/>
<path d="M98.9208 199.287C101.757 199.287 104.026 201.596 104.026 204.398C104.026 207.201 101.719 209.51 98.9208 209.51C96.1225 209.51 93.8159 207.201 93.8159 204.398C93.8159 201.596 96.1225 199.287 98.9208 199.287Z" fill="#DA1585" fill-opacity="0.5"/>
<path d="M98.9208 219.242C101.757 219.242 104.026 221.552 104.026 224.354C104.026 227.156 101.719 229.465 98.9208 229.465C96.1225 229.465 93.8159 227.156 93.8159 224.354C93.8159 221.552 96.1225 219.242 98.9208 219.242Z" fill="#DA1585" fill-opacity="0.5"/>
<path d="M80.1652 99.6621C83.0012 99.6621 85.27 101.972 85.27 104.774C85.27 107.614 82.9634 109.886 80.1652 109.886C77.3292 109.886 75.0603 107.576 75.0603 104.774C75.0603 101.934 77.3292 99.6621 80.1652 99.6621Z" fill="#DA1585" fill-opacity="0.5"/>
<path d="M98.9208 239.159C101.757 239.159 104.026 241.469 104.026 244.271C104.026 247.073 101.719 249.383 98.9208 249.383C96.1225 249.383 93.8159 247.073 93.8159 244.271C93.8159 241.469 96.1225 239.159 98.9208 239.159Z" fill="#DA1585" fill-opacity="0.5"/>
<path d="M98.9208 99.6621C101.757 99.6621 104.026 101.972 104.026 104.774C104.026 107.614 101.719 109.886 98.9208 109.886C96.1225 109.886 93.8159 107.576 93.8159 104.774C93.8159 101.934 96.1225 99.6621 98.9208 99.6621Z" fill="#DA1585" fill-opacity="0.5"/>
<path d="M98.9208 159.452C101.757 159.452 104.026 161.762 104.026 164.564C104.026 167.404 101.719 169.676 98.9208 169.676C96.1225 169.676 93.8159 167.366 93.8159 164.564C93.8159 161.724 96.1225 159.452 98.9208 159.452Z" fill="#DA1585" fill-opacity="0.5"/>
<path d="M98.9208 279.031C101.757 279.031 104.026 281.341 104.026 284.143C104.026 286.983 101.719 289.255 98.9208 289.255C96.1225 289.255 93.8159 286.945 93.8159 284.143C93.8159 281.303 96.1225 279.031 98.9208 279.031Z" fill="#DA1585" fill-opacity="0.5"/>
<path d="M80.1652 338.821C83.0012 338.821 85.27 341.131 85.27 343.933C85.27 346.773 82.9634 349.045 80.1652 349.045C77.3292 349.045 75.0603 346.735 75.0603 343.933C75.0603 341.093 77.3292 338.821 80.1652 338.821Z" fill="#DA1585" fill-opacity="0.5"/>
<path d="M98.9208 139.497C101.757 139.497 104.026 141.807 104.026 144.609C104.026 147.449 101.719 149.721 98.9208 149.721C96.1225 149.721 93.8159 147.411 93.8159 144.609C93.8159 141.807 96.1225 139.497 98.9208 139.497Z" fill="#DA1585" fill-opacity="0.5"/>
<path d="M98.9208 119.58C101.757 119.58 104.026 121.889 104.026 124.691C104.026 127.531 101.719 129.803 98.9208 129.803C96.1225 129.803 93.8159 127.493 93.8159 124.691C93.8159 121.889 96.1225 119.58 98.9208 119.58Z" fill="#DA1585" fill-opacity="0.5"/>
<path d="M61.4095 309.172C58.5902 309.172 56.3047 306.884 56.3047 304.061C56.3047 301.237 58.5902 298.949 61.4095 298.949C64.2289 298.949 66.5144 301.237 66.5144 304.061C66.5144 306.884 64.2289 309.172 61.4095 309.172Z" fill="#DA1585" fill-opacity="0.5"/>
<path d="M61.4095 149.758C58.5902 149.758 56.3047 147.47 56.3047 144.647C56.3047 141.823 58.5902 139.535 61.4095 139.535C64.2289 139.535 66.5144 141.823 66.5144 144.647C66.5144 147.47 64.2289 149.758 61.4095 149.758Z" fill="#DA1585" fill-opacity="0.5"/>
<path d="M61.4095 79.707C64.2456 79.707 66.5144 82.0168 66.5144 84.8189C66.5144 87.6588 64.2078 89.9307 61.4095 89.9307C58.5735 89.9307 56.3047 87.6209 56.3047 84.8189C56.2669 82.0168 58.5735 79.707 61.4095 79.707Z" fill="#DA1585" fill-opacity="0.5"/>
<path d="M61.4095 109.886C58.5902 109.886 56.3047 107.597 56.3047 104.774C56.3047 101.951 58.5902 99.6621 61.4095 99.6621C64.2289 99.6621 66.5144 101.951 66.5144 104.774C66.5144 107.597 64.2289 109.886 61.4095 109.886Z" fill="#DA1585" fill-opacity="0.5"/>
<path d="M61.4095 129.803C58.5902 129.803 56.3047 127.515 56.3047 124.691C56.3047 121.868 58.5902 119.58 61.4095 119.58C64.2289 119.58 66.5144 121.868 66.5144 124.691C66.5144 127.515 64.2289 129.803 61.4095 129.803Z" fill="#DA1585" fill-opacity="0.5"/>
<path d="M42.6539 358.739C45.49 358.739 47.7588 361.048 47.7588 363.85C47.7588 366.69 45.4521 368.962 42.6539 368.962C39.8557 368.962 37.549 366.652 37.549 363.85C37.5112 361.048 39.8179 358.739 42.6539 358.739Z" fill="#DA1585" fill-opacity="0.5"/>
<path d="M61.4095 59.7898C64.2456 59.7898 66.5144 62.0996 66.5144 64.9016C66.5144 67.7416 64.2078 70.0135 61.4095 70.0135C58.5735 70.0135 56.3047 67.7037 56.3047 64.9016C56.2669 62.0996 58.5735 59.7898 61.4095 59.7898Z" fill="#DA1585" fill-opacity="0.5"/>
<path d="M42.6539 259.076C45.49 259.076 47.7588 261.386 47.7588 264.188C47.7588 267.028 45.4521 269.3 42.6539 269.3C39.8557 269.3 37.549 266.99 37.549 264.188C37.5112 261.386 39.8179 259.076 42.6539 259.076Z" fill="#DA1585" fill-opacity="0.5"/>
<path d="M42.6539 279.031C45.49 279.031 47.7588 281.341 47.7588 284.143C47.7588 286.983 45.4521 289.255 42.6539 289.255C39.8557 289.255 37.549 286.945 37.549 284.143C37.5112 281.303 39.8179 279.031 42.6539 279.031Z" fill="#DA1585" fill-opacity="0.5"/>
<path d="M42.6539 298.949C45.49 298.949 47.7588 301.259 47.7588 304.061C47.7588 306.901 45.4521 309.172 42.6539 309.172C39.8557 309.172 37.549 306.863 37.549 304.061C37.5112 301.259 39.8179 298.949 42.6539 298.949Z" fill="#DA1585" fill-opacity="0.5"/>
<path d="M80.1652 79.707C83.0012 79.707 85.27 82.0168 85.27 84.8189C85.27 87.6588 82.9634 89.9307 80.1652 89.9307C77.3292 89.9307 75.0603 87.6209 75.0603 84.8189C75.0603 82.0168 77.3292 79.707 80.1652 79.707Z" fill="#DA1585" fill-opacity="0.5"/>
<path d="M42.6539 318.866C45.49 318.866 47.7588 321.176 47.7588 323.978C47.7588 326.818 45.4521 329.09 42.6539 329.09C39.8557 329.09 37.549 326.78 37.549 323.978C37.5112 321.176 39.8179 318.866 42.6539 318.866Z" fill="#DA1585" fill-opacity="0.5"/>
<path d="M42.6539 338.821C45.49 338.821 47.7588 341.131 47.7588 343.933C47.7588 346.773 45.4521 349.045 42.6539 349.045C39.8557 349.045 37.549 346.735 37.549 343.933C37.5112 341.093 39.8179 338.821 42.6539 338.821Z" fill="#DA1585" fill-opacity="0.5"/>
<path d="M61.4095 159.452C64.2456 159.452 66.5144 161.762 66.5144 164.564C66.5144 167.404 64.2078 169.676 61.4095 169.676C58.5735 169.676 56.3047 167.366 56.3047 164.564C56.2669 161.724 58.5735 159.452 61.4095 159.452Z" fill="#DA1585" fill-opacity="0.5"/>
<path d="M42.6539 239.159C45.49 239.159 47.7588 241.469 47.7588 244.271C47.7588 247.073 45.4522 249.383 42.6539 249.383C39.8557 249.383 37.5491 247.073 37.5491 244.271C37.5491 241.469 39.8179 239.159 42.6539 239.159Z" fill="#DA1585" fill-opacity="0.5"/>
<path d="M61.4095 358.739C64.2456 358.739 66.5144 361.048 66.5144 363.85C66.5144 366.69 64.2078 368.962 61.4095 368.962C58.5735 368.962 56.3047 366.652 56.3047 363.85C56.2669 361.048 58.5735 358.739 61.4095 358.739Z" fill="#DA1585" fill-opacity="0.5"/>
<path d="M61.4095 349.045C58.5902 349.045 56.3047 346.756 56.3047 343.933C56.3047 341.11 58.5902 338.821 61.4095 338.821C64.2289 338.821 66.5144 341.11 66.5144 343.933C66.5144 346.756 64.2289 349.045 61.4095 349.045Z" fill="#DA1585" fill-opacity="0.5"/>
<path d="M61.4095 279.031C64.2456 279.031 66.5144 281.341 66.5144 284.143C66.5144 286.983 64.2078 289.255 61.4095 289.255C58.5735 289.255 56.3047 286.945 56.3047 284.143C56.2669 281.303 58.5735 279.031 61.4095 279.031Z" fill="#DA1585" fill-opacity="0.5"/>
<path d="M61.4095 329.128C58.5902 329.128 56.3047 326.839 56.3047 324.016C56.3047 321.192 58.5902 318.904 61.4095 318.904C64.2289 318.904 66.5144 321.192 66.5144 324.016C66.5144 326.839 64.2289 329.128 61.4095 329.128Z" fill="#DA1585" fill-opacity="0.5"/>
<path d="M61.4095 179.369C64.2456 179.369 66.5144 181.679 66.5144 184.481C66.5144 187.321 64.2078 189.593 61.4095 189.593C58.5735 189.593 56.3047 187.283 56.3047 184.481C56.2669 181.679 58.5735 179.369 61.4095 179.369Z" fill="#DA1585" fill-opacity="0.5"/>
<path d="M61.4095 259.076C64.2456 259.076 66.5144 261.386 66.5144 264.188C66.5144 267.028 64.2078 269.3 61.4095 269.3C58.5735 269.3 56.3047 266.99 56.3047 264.188C56.2669 261.386 58.5735 259.076 61.4095 259.076Z" fill="#DA1585" fill-opacity="0.5"/>
<path d="M61.4095 199.287C64.2456 199.287 66.5144 201.596 66.5144 204.398C66.5144 207.201 64.2078 209.51 61.4095 209.51C58.5735 209.51 56.3047 207.201 56.3047 204.398C56.3047 201.596 58.5735 199.287 61.4095 199.287Z" fill="#DA1585" fill-opacity="0.5"/>
<path d="M61.4095 219.242C64.2456 219.242 66.5144 221.552 66.5144 224.354C66.5144 227.156 64.2078 229.465 61.4095 229.465C58.5735 229.465 56.3047 227.156 56.3047 224.354C56.3047 221.552 58.5735 219.242 61.4095 219.242Z" fill="#DA1585" fill-opacity="0.5"/>
<path d="M61.4095 239.159C64.2456 239.159 66.5144 241.469 66.5144 244.271C66.5144 247.073 64.2078 249.383 61.4095 249.383C58.5735 249.383 56.3047 247.073 56.3047 244.271C56.3047 241.469 58.5735 239.159 61.4095 239.159Z" fill="#DA1585" fill-opacity="0.5"/>
</g>
</svg>
