<svg width="348" height="369" viewBox="0 0 348 369" fill="none" xmlns="http://www.w3.org/2000/svg">
<g style="mix-blend-mode:multiply">
<path d="M192.775 199.286C189.938 199.286 187.67 201.596 187.67 204.398C187.67 207.2 189.976 209.51 192.775 209.51C195.573 209.51 197.879 207.2 197.879 204.398C197.879 201.596 195.611 199.286 192.775 199.286Z" fill="#1FA884" fill-opacity="0.5" style="mix-blend-mode:darken"/>
<path d="M192.775 219.242C189.938 219.242 187.67 221.551 187.67 224.353C187.67 227.156 189.976 229.465 192.775 229.465C195.573 229.465 197.879 227.156 197.879 224.353C197.879 221.551 195.611 219.242 192.775 219.242Z" fill="#1FA884" fill-opacity="0.5" style="mix-blend-mode:darken"/>
<path d="M192.775 259.076C189.938 259.076 187.67 261.386 187.67 264.188C187.67 267.028 189.976 269.3 192.775 269.3C195.573 269.3 197.879 266.99 197.879 264.188C197.879 261.386 195.611 259.076 192.775 259.076Z" fill="#1FA884" fill-opacity="0.5" style="mix-blend-mode:darken"/>
<path d="M192.775 239.159C189.938 239.159 187.67 241.469 187.67 244.271C187.67 247.073 189.976 249.383 192.775 249.383C195.573 249.383 197.879 247.073 197.879 244.271C197.879 241.469 195.611 239.159 192.775 239.159Z" fill="#1FA884" fill-opacity="0.5" style="mix-blend-mode:darken"/>
<path d="M192.775 179.369C189.938 179.369 187.67 181.679 187.67 184.481C187.67 187.321 189.976 189.593 192.775 189.593C195.573 189.593 197.879 187.283 197.879 184.481C197.879 181.679 195.611 179.369 192.775 179.369Z" fill="#1FA884" fill-opacity="0.5" style="mix-blend-mode:darken"/>
<path d="M192.775 159.452C189.938 159.452 187.67 161.762 187.67 164.564C187.67 167.404 189.976 169.676 192.775 169.676C195.573 169.676 197.879 167.366 197.879 164.564C197.879 161.724 195.611 159.452 192.775 159.452Z" fill="#1FA884" fill-opacity="0.5" style="mix-blend-mode:darken"/>
<path d="M211.53 318.866C208.694 318.866 206.425 321.176 206.425 323.978C206.425 326.818 208.732 329.09 211.53 329.09C214.366 329.09 216.635 326.78 216.635 323.978C216.673 321.176 214.366 318.866 211.53 318.866Z" fill="#1FA884" fill-opacity="0.5" style="mix-blend-mode:darken"/>
<path d="M211.53 298.949C208.694 298.949 206.425 301.258 206.425 304.061C206.425 306.9 208.732 309.172 211.53 309.172C214.366 309.172 216.635 306.863 216.635 304.061C216.673 301.258 214.366 298.949 211.53 298.949Z" fill="#1FA884" fill-opacity="0.5" style="mix-blend-mode:darken"/>
<path d="M174.019 318.866C171.183 318.866 168.914 321.176 168.914 323.978C168.914 326.818 171.221 329.09 174.019 329.09C176.855 329.09 179.124 326.78 179.124 323.978C179.124 321.176 176.817 318.866 174.019 318.866Z" fill="#1FA884" fill-opacity="0.5" style="mix-blend-mode:darken"/>
<path d="M211.53 358.738C208.694 358.738 206.425 361.048 206.425 363.85C206.425 366.69 208.732 368.962 211.53 368.962C214.366 368.962 216.635 366.652 216.635 363.85C216.673 361.048 214.366 358.738 211.53 358.738Z" fill="#1FA884" fill-opacity="0.5" style="mix-blend-mode:darken"/>
<path d="M211.53 338.821C208.694 338.821 206.425 341.131 206.425 343.933C206.425 346.773 208.732 349.045 211.53 349.045C214.366 349.045 216.635 346.735 216.635 343.933C216.673 341.093 214.366 338.821 211.53 338.821Z" fill="#1FA884" fill-opacity="0.5" style="mix-blend-mode:darken"/>
<path d="M192.775 298.949C189.938 298.949 187.67 301.258 187.67 304.061C187.67 306.9 189.976 309.172 192.775 309.172C195.573 309.172 197.879 306.863 197.879 304.061C197.879 301.258 195.611 298.949 192.775 298.949Z" fill="#1FA884" fill-opacity="0.5" style="mix-blend-mode:darken"/>
<path d="M174.019 259.076C171.183 259.076 168.914 261.386 168.914 264.188C168.914 267.028 171.221 269.3 174.019 269.3C176.855 269.3 179.124 266.99 179.124 264.188C179.124 261.386 176.817 259.076 174.019 259.076Z" fill="#1FA884" fill-opacity="0.5" style="mix-blend-mode:darken"/>
<path d="M174.019 239.159C171.183 239.159 168.914 241.469 168.914 244.271C168.914 247.073 171.221 249.383 174.019 249.383C176.855 249.383 179.124 247.073 179.124 244.271C179.124 241.469 176.817 239.159 174.019 239.159Z" fill="#1FA884" fill-opacity="0.5" style="mix-blend-mode:darken"/>
<path d="M174.019 219.242C171.183 219.242 168.914 221.551 168.914 224.353C168.914 227.156 171.221 229.465 174.019 229.465C176.855 229.465 179.124 227.156 179.124 224.353C179.124 221.551 176.817 219.242 174.019 219.242Z" fill="#1FA884" fill-opacity="0.5" style="mix-blend-mode:darken"/>
<path d="M174.019 279.031C171.183 279.031 168.914 281.341 168.914 284.143C168.914 286.983 171.221 289.255 174.019 289.255C176.855 289.255 179.124 286.945 179.124 284.143C179.124 281.303 176.817 279.031 174.019 279.031Z" fill="#1FA884" fill-opacity="0.5" style="mix-blend-mode:darken"/>
<path d="M211.53 279.031C208.694 279.031 206.425 281.341 206.425 284.143C206.425 286.983 208.732 289.255 211.53 289.255C214.366 289.255 216.635 286.945 216.635 284.143C216.673 281.303 214.366 279.031 211.53 279.031Z" fill="#1FA884" fill-opacity="0.5" style="mix-blend-mode:darken"/>
<path d="M174.019 298.949C171.183 298.949 168.914 301.258 168.914 304.061C168.914 306.9 171.221 309.172 174.019 309.172C176.855 309.172 179.124 306.863 179.124 304.061C179.124 301.258 176.817 298.949 174.019 298.949Z" fill="#1FA884" fill-opacity="0.5" style="mix-blend-mode:darken"/>
<path d="M174.019 199.286C171.183 199.286 168.914 201.596 168.914 204.398C168.914 207.2 171.221 209.51 174.019 209.51C176.855 209.51 179.124 207.2 179.124 204.398C179.124 201.596 176.817 199.286 174.019 199.286Z" fill="#1FA884" fill-opacity="0.5" style="mix-blend-mode:darken"/>
<path d="M192.775 318.866C189.938 318.866 187.67 321.176 187.67 323.978C187.67 326.818 189.976 329.09 192.775 329.09C195.573 329.09 197.879 326.78 197.879 323.978C197.879 321.176 195.611 318.866 192.775 318.866Z" fill="#1FA884" fill-opacity="0.5" style="mix-blend-mode:darken"/>
<path d="M192.775 338.821C189.938 338.821 187.67 341.131 187.67 343.933C187.67 346.773 189.976 349.045 192.775 349.045C195.573 349.045 197.879 346.735 197.879 343.933C197.879 341.093 195.611 338.821 192.775 338.821Z" fill="#1FA884" fill-opacity="0.5" style="mix-blend-mode:darken"/>
<path d="M174.019 179.369C171.183 179.369 168.914 181.679 168.914 184.481C168.914 187.321 171.221 189.593 174.019 189.593C176.855 189.593 179.124 187.283 179.124 184.481C179.124 181.679 176.817 179.369 174.019 179.369Z" fill="#1FA884" fill-opacity="0.5" style="mix-blend-mode:darken"/>
<path d="M192.775 358.738C189.938 358.738 187.67 361.048 187.67 363.85C187.67 366.69 189.976 368.962 192.775 368.962C195.573 368.962 197.879 366.652 197.879 363.85C197.879 361.048 195.611 358.738 192.775 358.738Z" fill="#1FA884" fill-opacity="0.5" style="mix-blend-mode:darken"/>
<path d="M211.53 179.369C208.694 179.369 206.425 181.679 206.425 184.481C206.425 187.321 208.732 189.593 211.53 189.593C214.366 189.593 216.635 187.283 216.635 184.481C216.673 181.679 214.366 179.369 211.53 179.369Z" fill="#1FA884" fill-opacity="0.5" style="mix-blend-mode:darken"/>
<path d="M230.286 199.286C227.45 199.286 225.181 201.596 225.181 204.398C225.181 207.2 227.488 209.51 230.286 209.51C233.122 209.51 235.391 207.2 235.391 204.398C235.391 201.596 233.122 199.286 230.286 199.286Z" fill="#1FA884" fill-opacity="0.5" style="mix-blend-mode:darken"/>
<path d="M230.286 219.242C227.45 219.242 225.181 221.551 225.181 224.353C225.181 227.156 227.488 229.465 230.286 229.465C233.122 229.465 235.391 227.156 235.391 224.353C235.391 221.551 233.122 219.242 230.286 219.242Z" fill="#1FA884" fill-opacity="0.5" style="mix-blend-mode:darken"/>
<path d="M230.286 279.031C227.45 279.031 225.181 281.341 225.181 284.143C225.181 286.983 227.488 289.255 230.286 289.255C233.122 289.255 235.391 286.945 235.391 284.143C235.428 281.303 233.122 279.031 230.286 279.031Z" fill="#1FA884" fill-opacity="0.5" style="mix-blend-mode:darken"/>
<path d="M230.286 179.369C227.45 179.369 225.181 181.679 225.181 184.481C225.181 187.321 227.488 189.593 230.286 189.593C233.122 189.593 235.391 187.283 235.391 184.481C235.428 181.679 233.122 179.369 230.286 179.369Z" fill="#1FA884" fill-opacity="0.5" style="mix-blend-mode:darken"/>
<path d="M230.286 259.076C227.45 259.076 225.181 261.386 225.181 264.188C225.181 267.028 227.488 269.3 230.286 269.3C233.122 269.3 235.391 266.99 235.391 264.188C235.428 261.386 233.122 259.076 230.286 259.076Z" fill="#1FA884" fill-opacity="0.5" style="mix-blend-mode:darken"/>
<path d="M230.286 239.159C227.45 239.159 225.181 241.469 225.181 244.271C225.181 247.073 227.488 249.383 230.286 249.383C233.122 249.383 235.391 247.073 235.391 244.271C235.391 241.469 233.122 239.159 230.286 239.159Z" fill="#1FA884" fill-opacity="0.5" style="mix-blend-mode:darken"/>
<path d="M249.079 358.738C246.243 358.738 243.974 361.048 243.974 363.85C243.974 366.69 246.281 368.962 249.079 368.962C251.877 368.962 254.184 366.652 254.184 363.85C254.184 361.048 251.877 358.738 249.079 358.738Z" fill="#1FA884" fill-opacity="0.5" style="mix-blend-mode:darken"/>
<path d="M249.079 338.821C246.243 338.821 243.974 341.131 243.974 343.933C243.974 346.773 246.281 349.045 249.079 349.045C251.877 349.045 254.184 346.735 254.184 343.933C254.184 341.093 251.877 338.821 249.079 338.821Z" fill="#1FA884" fill-opacity="0.5" style="mix-blend-mode:darken"/>
<path d="M230.286 119.579C227.45 119.579 225.181 121.889 225.181 124.691C225.181 127.531 227.488 129.803 230.286 129.803C233.122 129.803 235.391 127.493 235.391 124.691C235.428 121.889 233.122 119.579 230.286 119.579Z" fill="#1FA884" fill-opacity="0.5" style="mix-blend-mode:darken"/>
<path d="M230.286 139.497C227.45 139.497 225.181 141.807 225.181 144.609C225.181 147.449 227.488 149.72 230.286 149.72C233.122 149.72 235.391 147.411 235.391 144.609C235.428 141.807 233.122 139.497 230.286 139.497Z" fill="#1FA884" fill-opacity="0.5" style="mix-blend-mode:darken"/>
<path d="M230.286 159.452C227.45 159.452 225.181 161.762 225.181 164.564C225.181 167.404 227.488 169.676 230.286 169.676C233.122 169.676 235.391 167.366 235.391 164.564C235.428 161.724 233.122 159.452 230.286 159.452Z" fill="#1FA884" fill-opacity="0.5" style="mix-blend-mode:darken"/>
<path d="M211.53 239.159C208.694 239.159 206.425 241.469 206.425 244.271C206.425 247.073 208.732 249.383 211.53 249.383C214.366 249.383 216.635 247.073 216.635 244.271C216.635 241.469 214.366 239.159 211.53 239.159Z" fill="#1FA884" fill-opacity="0.5" style="mix-blend-mode:darken"/>
<path d="M211.53 199.286C208.694 199.286 206.425 201.596 206.425 204.398C206.425 207.2 208.732 209.51 211.53 209.51C214.366 209.51 216.635 207.2 216.635 204.398C216.635 201.596 214.366 199.286 211.53 199.286Z" fill="#1FA884" fill-opacity="0.5" style="mix-blend-mode:darken"/>
<path d="M249.079 318.866C246.243 318.866 243.974 321.176 243.974 323.978C243.974 326.818 246.281 329.09 249.079 329.09C251.877 329.09 254.184 326.78 254.184 323.978C254.184 321.176 251.877 318.866 249.079 318.866Z" fill="#1FA884" fill-opacity="0.5" style="mix-blend-mode:darken"/>
<path d="M211.53 259.076C208.694 259.076 206.425 261.386 206.425 264.188C206.425 267.028 208.732 269.3 211.53 269.3C214.366 269.3 216.635 266.99 216.635 264.188C216.673 261.386 214.366 259.076 211.53 259.076Z" fill="#1FA884" fill-opacity="0.5" style="mix-blend-mode:darken"/>
<path d="M211.53 159.452C208.694 159.452 206.425 161.762 206.425 164.564C206.425 167.404 208.732 169.676 211.53 169.676C214.366 169.676 216.635 167.366 216.635 164.564C216.673 161.724 214.366 159.452 211.53 159.452Z" fill="#1FA884" fill-opacity="0.5" style="mix-blend-mode:darken"/>
<path d="M211.53 219.242C208.694 219.242 206.425 221.551 206.425 224.353C206.425 227.156 208.732 229.465 211.53 229.465C214.366 229.465 216.635 227.156 216.635 224.353C216.635 221.551 214.366 219.242 211.53 219.242Z" fill="#1FA884" fill-opacity="0.5" style="mix-blend-mode:darken"/>
<path d="M230.286 318.866C227.45 318.866 225.181 321.176 225.181 323.978C225.181 326.818 227.488 329.09 230.286 329.09C233.122 329.09 235.391 326.78 235.391 323.978C235.428 321.176 233.122 318.866 230.286 318.866Z" fill="#1FA884" fill-opacity="0.5" style="mix-blend-mode:darken"/>
<path d="M230.286 298.949C227.45 298.949 225.181 301.258 225.181 304.061C225.181 306.9 227.488 309.172 230.286 309.172C233.122 309.172 235.391 306.863 235.391 304.061C235.428 301.258 233.122 298.949 230.286 298.949Z" fill="#1FA884" fill-opacity="0.5" style="mix-blend-mode:darken"/>
<path d="M211.53 139.497C208.694 139.497 206.425 141.807 206.425 144.609C206.425 147.449 208.732 149.72 211.53 149.72C214.366 149.72 216.635 147.411 216.635 144.609C216.673 141.807 214.366 139.497 211.53 139.497Z" fill="#1FA884" fill-opacity="0.5" style="mix-blend-mode:darken"/>
<path d="M230.286 338.821C227.45 338.821 225.181 341.131 225.181 343.933C225.181 346.773 227.488 349.045 230.286 349.045C233.122 349.045 235.391 346.735 235.391 343.933C235.428 341.093 233.122 338.821 230.286 338.821Z" fill="#1FA884" fill-opacity="0.5" style="mix-blend-mode:darken"/>
<path d="M230.286 358.738C227.45 358.738 225.181 361.048 225.181 363.85C225.181 366.69 227.488 368.962 230.286 368.962C233.122 368.962 235.391 366.652 235.391 363.85C235.428 361.048 233.122 358.738 230.286 358.738Z" fill="#1FA884" fill-opacity="0.5" style="mix-blend-mode:darken"/>
<path d="M80.1652 358.738C77.3291 358.738 75.0603 361.048 75.0603 363.85C75.0603 366.69 77.3669 368.962 80.1652 368.962C83.0012 368.962 85.27 366.652 85.27 363.85C85.3078 361.048 83.0012 358.738 80.1652 358.738Z" fill="#1FA884" fill-opacity="0.5" style="mix-blend-mode:darken"/>
<path d="M98.9586 349.045C101.778 349.045 104.063 346.756 104.063 343.933C104.063 341.11 101.778 338.821 98.9586 338.821C96.1393 338.821 93.8538 341.11 93.8538 343.933C93.8538 346.756 96.1393 349.045 98.9586 349.045Z" fill="#1FA884" fill-opacity="0.5" style="mix-blend-mode:darken"/>
<path d="M98.9586 358.738C96.1226 358.738 93.8538 361.048 93.8538 363.85C93.8538 366.69 96.1604 368.962 98.9586 368.962C101.757 368.962 104.063 366.652 104.063 363.85C104.063 361.048 101.757 358.738 98.9586 358.738Z" fill="#1FA884" fill-opacity="0.5" style="mix-blend-mode:darken"/>
<path d="M80.1652 279.031C77.3291 279.031 75.0603 281.341 75.0603 284.143C75.0603 286.983 77.3669 289.255 80.1652 289.255C83.0012 289.255 85.27 286.945 85.27 284.143C85.3078 281.303 83.0012 279.031 80.1652 279.031Z" fill="#1FA884" fill-opacity="0.5" style="mix-blend-mode:darken"/>
<path d="M80.1652 298.949C77.3291 298.949 75.0603 301.258 75.0603 304.061C75.0603 306.9 77.3669 309.172 80.1652 309.172C83.0012 309.172 85.27 306.863 85.27 304.061C85.3078 301.258 83.0012 298.949 80.1652 298.949Z" fill="#1FA884" fill-opacity="0.5" style="mix-blend-mode:darken"/>
<path d="M174.019 338.821C171.183 338.821 168.914 341.131 168.914 343.933C168.914 346.773 171.221 349.045 174.019 349.045C176.855 349.045 179.124 346.735 179.124 343.933C179.124 341.093 176.817 338.821 174.019 338.821Z" fill="#1FA884" fill-opacity="0.5" style="mix-blend-mode:darken"/>
<path d="M117.714 358.738C114.878 358.738 112.609 361.048 112.609 363.85C112.609 366.69 114.916 368.962 117.714 368.962C120.55 368.962 122.819 366.652 122.819 363.85C122.819 361.048 120.55 358.738 117.714 358.738Z" fill="#1FA884" fill-opacity="0.5" style="mix-blend-mode:darken"/>
<path d="M80.1652 338.821C77.3291 338.821 75.0603 341.131 75.0603 343.933C75.0603 346.773 77.3669 349.045 80.1652 349.045C83.0012 349.045 85.27 346.735 85.27 343.933C85.3078 341.093 83.0012 338.821 80.1652 338.821Z" fill="#1FA884" fill-opacity="0.5" style="mix-blend-mode:darken"/>
<path d="M98.9586 329.128C101.778 329.128 104.063 326.839 104.063 324.016C104.063 321.192 101.778 318.904 98.9586 318.904C96.1393 318.904 93.8538 321.192 93.8538 324.016C93.8538 326.839 96.1393 329.128 98.9586 329.128Z" fill="#1FA884" fill-opacity="0.5" style="mix-blend-mode:darken"/>
<path d="M98.9586 259.076C96.1226 259.076 93.8538 261.386 93.8538 264.188C93.8538 267.028 96.1604 269.3 98.9586 269.3C101.757 269.3 104.063 266.99 104.063 264.188C104.063 261.386 101.757 259.076 98.9586 259.076Z" fill="#1FA884" fill-opacity="0.5" style="mix-blend-mode:darken"/>
<path d="M98.9586 279.031C96.1226 279.031 93.8538 281.341 93.8538 284.143C93.8538 286.983 96.1604 289.255 98.9586 289.255C101.757 289.255 104.063 286.945 104.063 284.143C104.063 281.303 101.757 279.031 98.9586 279.031Z" fill="#1FA884" fill-opacity="0.5" style="mix-blend-mode:darken"/>
<path d="M98.9586 309.172C101.778 309.172 104.063 306.884 104.063 304.061C104.063 301.237 101.778 298.949 98.9586 298.949C96.1393 298.949 93.8538 301.237 93.8538 304.061C93.8538 306.884 96.1393 309.172 98.9586 309.172Z" fill="#1FA884" fill-opacity="0.5" style="mix-blend-mode:darken"/>
<path d="M61.4095 298.949C58.5735 298.949 56.3047 301.258 56.3047 304.061C56.3047 306.9 58.6113 309.172 61.4095 309.172C64.2078 309.172 66.5144 306.863 66.5144 304.061C66.5144 301.258 64.2456 298.949 61.4095 298.949Z" fill="#1FA884" fill-opacity="0.5" style="mix-blend-mode:darken"/>
<path d="M249.079 298.949C246.243 298.949 243.974 301.258 243.974 304.061C243.974 306.9 246.281 309.172 249.079 309.172C251.877 309.172 254.184 306.863 254.184 304.061C254.184 301.258 251.877 298.949 249.079 298.949Z" fill="#1FA884" fill-opacity="0.5" style="mix-blend-mode:darken"/>
<path d="M23.8983 338.821C21.0623 338.821 18.7935 341.131 18.7935 343.933C18.7935 346.773 21.1001 349.045 23.8983 349.045C26.7343 349.045 29.0032 346.735 29.0032 343.933C29.0032 341.093 26.6965 338.821 23.8983 338.821Z" fill="#1FA884" fill-opacity="0.5" style="mix-blend-mode:darken"/>
<path d="M42.6539 349.045C45.4733 349.045 47.7588 346.756 47.7588 343.933C47.7588 341.11 45.4733 338.821 42.6539 338.821C39.8346 338.821 37.5491 341.11 37.5491 343.933C37.5491 346.756 39.8346 349.045 42.6539 349.045Z" fill="#1FA884" fill-opacity="0.5" style="mix-blend-mode:darken"/>
<path d="M23.8983 358.738C21.0623 358.738 18.7935 361.048 18.7935 363.85C18.7935 366.69 21.1001 368.962 23.8983 368.962C26.7343 368.962 29.0032 366.652 29.0032 363.85C29.0032 361.048 26.6965 358.738 23.8983 358.738Z" fill="#1FA884" fill-opacity="0.5" style="mix-blend-mode:darken"/>
<path d="M5.10486 358.738C2.26883 358.738 0 361.048 0 363.85C0 366.69 2.30664 368.962 5.10486 368.962C7.90308 368.962 10.2097 366.652 10.2097 363.85C10.2475 361.048 7.94089 358.738 5.10486 358.738Z" fill="#1FA884" fill-opacity="0.5" style="mix-blend-mode:darken"/>
<path d="M42.6539 358.738C39.8179 358.738 37.5491 361.048 37.5491 363.85C37.5491 366.69 39.8557 368.962 42.6539 368.962C45.49 368.962 47.7588 366.652 47.7588 363.85C47.7588 361.048 45.49 358.738 42.6539 358.738Z" fill="#1FA884" fill-opacity="0.5" style="mix-blend-mode:darken"/>
<path d="M61.4095 318.866C58.5735 318.866 56.3047 321.176 56.3047 323.978C56.3047 326.818 58.6113 329.09 61.4095 329.09C64.2078 329.09 66.5144 326.78 66.5144 323.978C66.5144 321.176 64.2456 318.866 61.4095 318.866Z" fill="#1FA884" fill-opacity="0.5" style="mix-blend-mode:darken"/>
<path d="M42.6539 329.128C45.4733 329.128 47.7588 326.839 47.7588 324.016C47.7588 321.192 45.4733 318.904 42.6539 318.904C39.8346 318.904 37.5491 321.192 37.5491 324.016C37.5491 326.839 39.8346 329.128 42.6539 329.128Z" fill="#1FA884" fill-opacity="0.5" style="mix-blend-mode:darken"/>
<path d="M117.714 338.821C114.878 338.821 112.609 341.131 112.609 343.933C112.609 346.773 114.916 349.045 117.714 349.045C120.55 349.045 122.819 346.735 122.819 343.933C122.819 341.093 120.55 338.821 117.714 338.821Z" fill="#1FA884" fill-opacity="0.5" style="mix-blend-mode:darken"/>
<path d="M61.4095 338.821C58.5735 338.821 56.3047 341.131 56.3047 343.933C56.3047 346.773 58.6113 349.045 61.4095 349.045C64.2078 349.045 66.5144 346.735 66.5144 343.933C66.5144 341.093 64.2456 338.821 61.4095 338.821Z" fill="#1FA884" fill-opacity="0.5" style="mix-blend-mode:darken"/>
<path d="M61.4095 358.738C58.5735 358.738 56.3047 361.048 56.3047 363.85C56.3047 366.69 58.6113 368.962 61.4095 368.962C64.2078 368.962 66.5144 366.652 66.5144 363.85C66.5144 361.048 64.2456 358.738 61.4095 358.738Z" fill="#1FA884" fill-opacity="0.5" style="mix-blend-mode:darken"/>
<path d="M80.1652 318.866C77.3291 318.866 75.0603 321.176 75.0603 323.978C75.0603 326.818 77.3669 329.09 80.1652 329.09C83.0012 329.09 85.27 326.78 85.27 323.978C85.3078 321.176 83.0012 318.866 80.1652 318.866Z" fill="#1FA884" fill-opacity="0.5" style="mix-blend-mode:darken"/>
<path d="M117.714 318.866C114.878 318.866 112.609 321.176 112.609 323.978C112.609 326.818 114.916 329.09 117.714 329.09C120.55 329.09 122.819 326.78 122.819 323.978C122.819 321.176 120.55 318.866 117.714 318.866Z" fill="#1FA884" fill-opacity="0.5" style="mix-blend-mode:darken"/>
<path d="M155.225 309.172C158.045 309.172 160.33 306.884 160.33 304.061C160.33 301.237 158.045 298.949 155.225 298.949C152.406 298.949 150.121 301.237 150.121 304.061C150.121 306.884 152.406 309.172 155.225 309.172Z" fill="#1FA884" fill-opacity="0.5" style="mix-blend-mode:darken"/>
<path d="M155.225 329.128C158.045 329.128 160.33 326.839 160.33 324.016C160.33 321.192 158.045 318.904 155.225 318.904C152.406 318.904 150.121 321.192 150.121 324.016C150.121 326.839 152.406 329.128 155.225 329.128Z" fill="#1FA884" fill-opacity="0.5" style="mix-blend-mode:darken"/>
<path d="M155.225 358.738C152.389 358.738 150.121 361.048 150.121 363.85C150.121 366.69 152.427 368.962 155.225 368.962C158.061 368.962 160.33 366.652 160.33 363.85C160.368 361.048 158.061 358.738 155.225 358.738Z" fill="#1FA884" fill-opacity="0.5" style="mix-blend-mode:darken"/>
<path d="M155.225 349.045C158.045 349.045 160.33 346.756 160.33 343.933C160.33 341.11 158.045 338.821 155.225 338.821C152.406 338.821 150.121 341.11 150.121 343.933C150.121 346.756 152.406 349.045 155.225 349.045Z" fill="#1FA884" fill-opacity="0.5" style="mix-blend-mode:darken"/>
<path d="M136.47 219.242C133.634 219.242 131.365 221.551 131.365 224.353C131.365 227.156 133.672 229.465 136.47 229.465C139.268 229.465 141.575 227.156 141.575 224.353C141.575 221.551 139.306 219.242 136.47 219.242Z" fill="#1FA884" fill-opacity="0.5" style="mix-blend-mode:darken"/>
<path d="M155.225 259.076C152.389 259.076 150.121 261.386 150.121 264.188C150.121 267.028 152.427 269.3 155.225 269.3C158.061 269.3 160.33 266.99 160.33 264.188C160.368 261.386 158.061 259.076 155.225 259.076Z" fill="#1FA884" fill-opacity="0.5" style="mix-blend-mode:darken"/>
<path d="M155.225 199.286C152.389 199.286 150.121 201.596 150.121 204.398C150.121 207.2 152.427 209.51 155.225 209.51C158.061 209.51 160.33 207.2 160.33 204.398C160.33 201.596 158.061 199.286 155.225 199.286Z" fill="#1FA884" fill-opacity="0.5" style="mix-blend-mode:darken"/>
<path d="M174.019 358.738C171.183 358.738 168.914 361.048 168.914 363.85C168.914 366.69 171.221 368.962 174.019 368.962C176.855 368.962 179.124 366.652 179.124 363.85C179.124 361.048 176.817 358.738 174.019 358.738Z" fill="#1FA884" fill-opacity="0.5" style="mix-blend-mode:darken"/>
<path d="M155.225 239.159C152.389 239.159 150.121 241.469 150.121 244.271C150.121 247.073 152.427 249.383 155.225 249.383C158.061 249.383 160.33 247.073 160.33 244.271C160.33 241.469 158.061 239.159 155.225 239.159Z" fill="#1FA884" fill-opacity="0.5" style="mix-blend-mode:darken"/>
<path d="M155.225 219.242C152.389 219.242 150.121 221.551 150.121 224.353C150.121 227.156 152.427 229.465 155.225 229.465C158.061 229.465 160.33 227.156 160.33 224.353C160.33 221.551 158.061 219.242 155.225 219.242Z" fill="#1FA884" fill-opacity="0.5" style="mix-blend-mode:darken"/>
<path d="M155.225 279.031C152.389 279.031 150.121 281.341 150.121 284.143C150.121 286.983 152.427 289.255 155.225 289.255C158.061 289.255 160.33 286.945 160.33 284.143C160.368 281.303 158.061 279.031 155.225 279.031Z" fill="#1FA884" fill-opacity="0.5" style="mix-blend-mode:darken"/>
<path d="M117.714 259.076C114.878 259.076 112.609 261.386 112.609 264.188C112.609 267.028 114.916 269.3 117.714 269.3C120.55 269.3 122.819 266.99 122.819 264.188C122.819 261.386 120.55 259.076 117.714 259.076Z" fill="#1FA884" fill-opacity="0.5" style="mix-blend-mode:darken"/>
<path d="M117.714 239.159C114.878 239.159 112.609 241.469 112.609 244.271C112.609 247.073 114.916 249.383 117.714 249.383C120.55 249.383 122.819 247.073 122.819 244.271C122.819 241.469 120.55 239.159 117.714 239.159Z" fill="#1FA884" fill-opacity="0.5" style="mix-blend-mode:darken"/>
<path d="M117.714 279.031C114.878 279.031 112.609 281.341 112.609 284.143C112.609 286.983 114.916 289.255 117.714 289.255C120.55 289.255 122.819 286.945 122.819 284.143C122.819 281.303 120.55 279.031 117.714 279.031Z" fill="#1FA884" fill-opacity="0.5" style="mix-blend-mode:darken"/>
<path d="M117.714 298.949C114.878 298.949 112.609 301.258 112.609 304.061C112.609 306.9 114.916 309.172 117.714 309.172C120.55 309.172 122.819 306.863 122.819 304.061C122.819 301.258 120.55 298.949 117.714 298.949Z" fill="#1FA884" fill-opacity="0.5" style="mix-blend-mode:darken"/>
<path d="M136.47 239.159C133.634 239.159 131.365 241.469 131.365 244.271C131.365 247.073 133.672 249.383 136.47 249.383C139.268 249.383 141.575 247.073 141.575 244.271C141.575 241.469 139.306 239.159 136.47 239.159Z" fill="#1FA884" fill-opacity="0.5" style="mix-blend-mode:darken"/>
<path d="M136.47 358.738C133.634 358.738 131.365 361.048 131.365 363.85C131.365 366.69 133.672 368.962 136.47 368.962C139.268 368.962 141.575 366.652 141.575 363.85C141.575 361.048 139.306 358.738 136.47 358.738Z" fill="#1FA884" fill-opacity="0.5" style="mix-blend-mode:darken"/>
<path d="M136.47 259.076C133.634 259.076 131.365 261.386 131.365 264.188C131.365 267.028 133.672 269.3 136.47 269.3C139.268 269.3 141.575 266.99 141.575 264.188C141.575 261.386 139.306 259.076 136.47 259.076Z" fill="#1FA884" fill-opacity="0.5" style="mix-blend-mode:darken"/>
<path d="M136.47 338.821C133.634 338.821 131.365 341.131 131.365 343.933C131.365 346.773 133.672 349.045 136.47 349.045C139.268 349.045 141.575 346.735 141.575 343.933C141.575 341.093 139.306 338.821 136.47 338.821Z" fill="#1FA884" fill-opacity="0.5" style="mix-blend-mode:darken"/>
<path d="M136.47 279.031C133.634 279.031 131.365 281.341 131.365 284.143C131.365 286.983 133.672 289.255 136.47 289.255C139.268 289.255 141.575 286.945 141.575 284.143C141.575 281.303 139.306 279.031 136.47 279.031Z" fill="#1FA884" fill-opacity="0.5" style="mix-blend-mode:darken"/>
<path d="M136.47 298.949C133.634 298.949 131.365 301.258 131.365 304.061C131.365 306.9 133.672 309.172 136.47 309.172C139.268 309.172 141.575 306.863 141.575 304.061C141.575 301.258 139.306 298.949 136.47 298.949Z" fill="#1FA884" fill-opacity="0.5" style="mix-blend-mode:darken"/>
<path d="M136.47 318.866C133.634 318.866 131.365 321.176 131.365 323.978C131.365 326.818 133.672 329.09 136.47 329.09C139.268 329.09 141.575 326.78 141.575 323.978C141.575 321.176 139.306 318.866 136.47 318.866Z" fill="#1FA884" fill-opacity="0.5" style="mix-blend-mode:darken"/>
<path d="M192.775 279.031C189.938 279.031 187.67 281.341 187.67 284.143C187.67 286.983 189.976 289.255 192.775 289.255C195.573 289.255 197.879 286.945 197.879 284.143C197.879 281.303 195.611 279.031 192.775 279.031Z" fill="#1FA884" fill-opacity="0.5" style="mix-blend-mode:darken"/>
<path d="M324.14 219.242C321.303 219.242 319.035 221.551 319.035 224.353C319.035 227.156 321.341 229.465 324.14 229.465C326.976 229.465 329.244 227.156 329.244 224.353C329.244 221.551 326.938 219.242 324.14 219.242Z" fill="#1FA884" fill-opacity="0.5" style="mix-blend-mode:darken"/>
<path d="M324.14 99.6622C321.303 99.6622 319.035 101.972 319.035 104.774C319.035 107.614 321.341 109.886 324.14 109.886C326.976 109.886 329.244 107.576 329.244 104.774C329.244 101.934 326.938 99.6622 324.14 99.6622Z" fill="#1FA884" fill-opacity="0.5" style="mix-blend-mode:darken"/>
<path d="M324.14 239.159C321.303 239.159 319.035 241.469 319.035 244.271C319.035 247.073 321.341 249.383 324.14 249.383C326.976 249.383 329.244 247.073 329.244 244.271C329.244 241.469 326.938 239.159 324.14 239.159Z" fill="#1FA884" fill-opacity="0.5" style="mix-blend-mode:darken"/>
<path d="M324.14 298.949C321.303 298.949 319.035 301.258 319.035 304.061C319.035 306.9 321.341 309.172 324.14 309.172C326.976 309.172 329.244 306.863 329.244 304.061C329.244 301.258 326.938 298.949 324.14 298.949Z" fill="#1FA884" fill-opacity="0.5" style="mix-blend-mode:darken"/>
<path d="M324.14 318.866C321.303 318.866 319.035 321.176 319.035 323.978C319.035 326.818 321.341 329.09 324.14 329.09C326.976 329.09 329.244 326.78 329.244 323.978C329.244 321.176 326.938 318.866 324.14 318.866Z" fill="#1FA884" fill-opacity="0.5" style="mix-blend-mode:darken"/>
<path d="M324.14 279.031C321.303 279.031 319.035 281.341 319.035 284.143C319.035 286.983 321.341 289.255 324.14 289.255C326.976 289.255 329.244 286.945 329.244 284.143C329.244 281.303 326.938 279.031 324.14 279.031Z" fill="#1FA884" fill-opacity="0.5" style="mix-blend-mode:darken"/>
<path d="M324.14 139.497C321.303 139.497 319.035 141.807 319.035 144.609C319.035 147.449 321.341 149.72 324.14 149.72C326.976 149.72 329.244 147.411 329.244 144.609C329.244 141.807 326.938 139.497 324.14 139.497Z" fill="#1FA884" fill-opacity="0.5" style="mix-blend-mode:darken"/>
<path d="M305.346 219.242C302.51 219.242 300.241 221.551 300.241 224.353C300.241 227.156 302.548 229.465 305.346 229.465C308.144 229.465 310.451 227.156 310.451 224.353C310.451 221.551 308.182 219.242 305.346 219.242Z" fill="#1FA884" fill-opacity="0.5" style="mix-blend-mode:darken"/>
<path d="M324.14 119.579C321.303 119.579 319.035 121.889 319.035 124.691C319.035 127.531 321.341 129.803 324.14 129.803C326.976 129.803 329.244 127.493 329.244 124.691C329.244 121.889 326.938 119.579 324.14 119.579Z" fill="#1FA884" fill-opacity="0.5" style="mix-blend-mode:darken"/>
<path d="M324.14 179.369C321.303 179.369 319.035 181.679 319.035 184.481C319.035 187.321 321.341 189.593 324.14 189.593C326.976 189.593 329.244 187.283 329.244 184.481C329.244 181.679 326.938 179.369 324.14 179.369Z" fill="#1FA884" fill-opacity="0.5" style="mix-blend-mode:darken"/>
<path d="M324.14 159.452C321.303 159.452 319.035 161.762 319.035 164.564C319.035 167.404 321.341 169.676 324.14 169.676C326.976 169.676 329.244 167.366 329.244 164.564C329.244 161.724 326.938 159.452 324.14 159.452Z" fill="#1FA884" fill-opacity="0.5" style="mix-blend-mode:darken"/>
<path d="M324.14 259.076C321.303 259.076 319.035 261.386 319.035 264.188C319.035 267.028 321.341 269.3 324.14 269.3C326.976 269.3 329.244 266.99 329.244 264.188C329.244 261.386 326.938 259.076 324.14 259.076Z" fill="#1FA884" fill-opacity="0.5" style="mix-blend-mode:darken"/>
<path d="M305.346 119.579C302.51 119.579 300.241 121.889 300.241 124.691C300.241 127.531 302.548 129.803 305.346 129.803C308.144 129.803 310.451 127.493 310.451 124.691C310.489 121.889 308.182 119.579 305.346 119.579Z" fill="#1FA884" fill-opacity="0.5" style="mix-blend-mode:darken"/>
<path d="M305.346 159.452C302.51 159.452 300.241 161.762 300.241 164.564C300.241 167.404 302.548 169.676 305.346 169.676C308.144 169.676 310.451 167.366 310.451 164.564C310.489 161.724 308.182 159.452 305.346 159.452Z" fill="#1FA884" fill-opacity="0.5" style="mix-blend-mode:darken"/>
<path d="M305.346 139.497C302.51 139.497 300.241 141.807 300.241 144.609C300.241 147.449 302.548 149.72 305.346 149.72C308.144 149.72 310.451 147.411 310.451 144.609C310.489 141.807 308.182 139.497 305.346 139.497Z" fill="#1FA884" fill-opacity="0.5" style="mix-blend-mode:darken"/>
<path d="M324.14 338.821C321.303 338.821 319.035 341.131 319.035 343.933C319.035 346.773 321.341 349.045 324.14 349.045C326.976 349.045 329.244 346.735 329.244 343.933C329.244 341.093 326.938 338.821 324.14 338.821Z" fill="#1FA884" fill-opacity="0.5" style="mix-blend-mode:darken"/>
<path d="M305.346 179.369C302.51 179.369 300.241 181.679 300.241 184.481C300.241 187.321 302.548 189.593 305.346 189.593C308.144 189.593 310.451 187.283 310.451 184.481C310.489 181.679 308.182 179.369 305.346 179.369Z" fill="#1FA884" fill-opacity="0.5" style="mix-blend-mode:darken"/>
<path d="M305.346 199.286C302.51 199.286 300.241 201.596 300.241 204.398C300.241 207.2 302.548 209.51 305.346 209.51C308.144 209.51 310.451 207.2 310.451 204.398C310.451 201.596 308.182 199.286 305.346 199.286Z" fill="#1FA884" fill-opacity="0.5" style="mix-blend-mode:darken"/>
<path d="M305.346 39.8724C302.51 39.8724 300.241 42.1822 300.241 44.9843C300.241 47.7863 302.548 50.0961 305.346 50.0961C308.144 50.0961 310.451 47.7863 310.451 44.9843C310.451 42.1822 308.182 39.8724 305.346 39.8724Z" fill="#1FA884" fill-opacity="0.5" style="mix-blend-mode:darken"/>
<path d="M324.14 358.738C321.303 358.738 319.035 361.048 319.035 363.85C319.035 366.69 321.341 368.962 324.14 368.962C326.976 368.962 329.244 366.652 329.244 363.85C329.244 361.048 326.938 358.738 324.14 358.738Z" fill="#1FA884" fill-opacity="0.5" style="mix-blend-mode:darken"/>
<path d="M305.346 59.7897C302.51 59.7897 300.241 62.0995 300.241 64.9016C300.241 67.7415 302.548 70.0134 305.346 70.0134C308.144 70.0134 310.451 67.7036 310.451 64.9016C310.489 62.0995 308.182 59.7897 305.346 59.7897Z" fill="#1FA884" fill-opacity="0.5" style="mix-blend-mode:darken"/>
<path d="M305.346 99.6622C302.51 99.6622 300.241 101.972 300.241 104.774C300.241 107.614 302.548 109.886 305.346 109.886C308.144 109.886 310.451 107.576 310.451 104.774C310.489 101.934 308.182 99.6622 305.346 99.6622Z" fill="#1FA884" fill-opacity="0.5" style="mix-blend-mode:darken"/>
<path d="M305.346 79.707C302.51 79.707 300.241 82.0168 300.241 84.8189C300.241 87.6588 302.548 89.9307 305.346 89.9307C308.144 89.9307 310.451 87.6209 310.451 84.8189C310.489 82.0168 308.182 79.707 305.346 79.707Z" fill="#1FA884" fill-opacity="0.5" style="mix-blend-mode:darken"/>
<path d="M324.14 199.286C321.303 199.286 319.035 201.596 319.035 204.398C319.035 207.2 321.341 209.51 324.14 209.51C326.976 209.51 329.244 207.2 329.244 204.398C329.244 201.596 326.938 199.286 324.14 199.286Z" fill="#1FA884" fill-opacity="0.5" style="mix-blend-mode:darken"/>
<path d="M342.895 149.758C345.714 149.758 348 147.47 348 144.646C348 141.823 345.714 139.535 342.895 139.535C340.076 139.535 337.79 141.823 337.79 144.646C337.79 147.47 340.076 149.758 342.895 149.758Z" fill="#1FA884" fill-opacity="0.5" style="mix-blend-mode:darken"/>
<path d="M324.14 79.707C321.303 79.707 319.035 82.0168 319.035 84.8189C319.035 87.6588 321.341 89.9307 324.14 89.9307C326.976 89.9307 329.244 87.6209 329.244 84.8189C329.244 82.0168 326.938 79.707 324.14 79.707Z" fill="#1FA884" fill-opacity="0.5" style="mix-blend-mode:darken"/>
<path d="M342.895 129.803C345.714 129.803 348 127.515 348 124.691C348 121.868 345.714 119.579 342.895 119.579C340.076 119.579 337.79 121.868 337.79 124.691C337.79 127.515 340.076 129.803 342.895 129.803Z" fill="#1FA884" fill-opacity="0.5" style="mix-blend-mode:darken"/>
<path d="M342.895 179.369C340.059 179.369 337.79 181.679 337.79 184.481C337.79 187.321 340.097 189.593 342.895 189.593C345.693 189.593 348 187.283 348 184.481C348 181.679 345.731 179.369 342.895 179.369Z" fill="#1FA884" fill-opacity="0.5" style="mix-blend-mode:darken"/>
<path d="M342.895 159.452C340.059 159.452 337.79 161.762 337.79 164.564C337.79 167.404 340.097 169.676 342.895 169.676C345.693 169.676 348 167.366 348 164.564C348 161.724 345.731 159.452 342.895 159.452Z" fill="#1FA884" fill-opacity="0.5" style="mix-blend-mode:darken"/>
<path d="M342.895 79.707C340.059 79.707 337.79 82.0168 337.79 84.8189C337.79 87.6588 340.097 89.9307 342.895 89.9307C345.693 89.9307 348 87.6209 348 84.8189C348 82.0168 345.731 79.707 342.895 79.707Z" fill="#1FA884" fill-opacity="0.5" style="mix-blend-mode:darken"/>
<path d="M342.895 19.9173C340.059 19.9173 337.79 22.2271 337.79 25.0291C337.79 27.8312 340.097 30.141 342.895 30.141C345.693 30.141 348 27.8312 348 25.0291C348 22.2271 345.731 19.9173 342.895 19.9173Z" fill="#1FA884" fill-opacity="0.5" style="mix-blend-mode:darken"/>
<path d="M342.895 199.286C340.059 199.286 337.79 201.596 337.79 204.398C337.79 207.2 340.097 209.51 342.895 209.51C345.693 209.51 348 207.2 348 204.398C348 201.596 345.731 199.286 342.895 199.286Z" fill="#1FA884" fill-opacity="0.5" style="mix-blend-mode:darken"/>
<path d="M342.895 0C340.059 0 337.79 2.3098 337.79 5.11185C337.79 7.9139 340.097 10.2237 342.895 10.2237C345.693 10.2237 348 7.9139 348 5.11185C348 2.3098 345.731 0 342.895 0Z" fill="#1FA884" fill-opacity="0.5" style="mix-blend-mode:darken"/>
<path d="M342.895 59.7897C340.059 59.7897 337.79 62.0995 337.79 64.9016C337.79 67.7415 340.097 70.0134 342.895 70.0134C345.693 70.0134 348 67.7036 348 64.9016C348 62.0995 345.731 59.7897 342.895 59.7897Z" fill="#1FA884" fill-opacity="0.5" style="mix-blend-mode:darken"/>
<path d="M342.895 39.8724C340.059 39.8724 337.79 42.1822 337.79 44.9843C337.79 47.7863 340.097 50.0961 342.895 50.0961C345.693 50.0961 348 47.7863 348 44.9843C348 42.1822 345.731 39.8724 342.895 39.8724Z" fill="#1FA884" fill-opacity="0.5" style="mix-blend-mode:darken"/>
<path d="M342.895 109.886C345.714 109.886 348 107.597 348 104.774C348 101.951 345.714 99.6622 342.895 99.6622C340.076 99.6622 337.79 101.951 337.79 104.774C337.79 107.597 340.076 109.886 342.895 109.886Z" fill="#1FA884" fill-opacity="0.5" style="mix-blend-mode:darken"/>
<path d="M342.895 358.738C340.059 358.738 337.79 361.048 337.79 363.85C337.79 366.69 340.097 368.962 342.895 368.962C345.693 368.962 348 366.652 348 363.85C348 361.048 345.731 358.738 342.895 358.738Z" fill="#1FA884" fill-opacity="0.5" style="mix-blend-mode:darken"/>
<path d="M342.895 349.045C345.714 349.045 348 346.756 348 343.933C348 341.11 345.714 338.821 342.895 338.821C340.076 338.821 337.79 341.11 337.79 343.933C337.79 346.756 340.076 349.045 342.895 349.045Z" fill="#1FA884" fill-opacity="0.5" style="mix-blend-mode:darken"/>
<path d="M324.14 19.9173C321.303 19.9173 319.035 22.2271 319.035 25.0291C319.035 27.8312 321.341 30.141 324.14 30.141C326.976 30.141 329.244 27.8312 329.244 25.0291C329.244 22.2271 326.938 19.9173 324.14 19.9173Z" fill="#1FA884" fill-opacity="0.5" style="mix-blend-mode:darken"/>
<path d="M342.895 219.242C340.059 219.242 337.79 221.551 337.79 224.353C337.79 227.156 340.097 229.465 342.895 229.465C345.693 229.465 348 227.156 348 224.353C348 221.551 345.731 219.242 342.895 219.242Z" fill="#1FA884" fill-opacity="0.5" style="mix-blend-mode:darken"/>
<path d="M324.14 59.7897C321.303 59.7897 319.035 62.0995 319.035 64.9016C319.035 67.7415 321.341 70.0134 324.14 70.0134C326.976 70.0134 329.244 67.7036 329.244 64.9016C329.244 62.0995 326.938 59.7897 324.14 59.7897Z" fill="#1FA884" fill-opacity="0.5" style="mix-blend-mode:darken"/>
<path d="M324.14 39.8724C321.303 39.8724 319.035 42.1822 319.035 44.9843C319.035 47.7863 321.341 50.0961 324.14 50.0961C326.976 50.0961 329.244 47.7863 329.244 44.9843C329.244 42.1822 326.938 39.8724 324.14 39.8724Z" fill="#1FA884" fill-opacity="0.5" style="mix-blend-mode:darken"/>
<path d="M342.895 239.159C340.059 239.159 337.79 241.469 337.79 244.271C337.79 247.073 340.097 249.383 342.895 249.383C345.693 249.383 348 247.073 348 244.271C348 241.469 345.731 239.159 342.895 239.159Z" fill="#1FA884" fill-opacity="0.5" style="mix-blend-mode:darken"/>
<path d="M342.895 259.076C340.059 259.076 337.79 261.386 337.79 264.188C337.79 267.028 340.097 269.3 342.895 269.3C345.693 269.3 348 266.99 348 264.188C348 261.386 345.731 259.076 342.895 259.076Z" fill="#1FA884" fill-opacity="0.5" style="mix-blend-mode:darken"/>
<path d="M342.895 329.128C345.714 329.128 348 326.839 348 324.016C348 321.192 345.714 318.904 342.895 318.904C340.076 318.904 337.79 321.192 337.79 324.016C337.79 326.839 340.076 329.128 342.895 329.128Z" fill="#1FA884" fill-opacity="0.5" style="mix-blend-mode:darken"/>
<path d="M342.895 279.031C340.059 279.031 337.79 281.341 337.79 284.143C337.79 286.983 340.097 289.255 342.895 289.255C345.693 289.255 348 286.945 348 284.143C348 281.303 345.731 279.031 342.895 279.031Z" fill="#1FA884" fill-opacity="0.5" style="mix-blend-mode:darken"/>
<path d="M342.895 309.172C345.714 309.172 348 306.884 348 304.061C348 301.237 345.714 298.949 342.895 298.949C340.076 298.949 337.79 301.237 337.79 304.061C337.79 306.884 340.076 309.172 342.895 309.172Z" fill="#1FA884" fill-opacity="0.5" style="mix-blend-mode:darken"/>
<path d="M267.835 358.738C264.999 358.738 262.73 361.048 262.73 363.85C262.73 366.69 265.037 368.962 267.835 368.962C270.671 368.962 272.94 366.652 272.94 363.85C272.94 361.048 270.671 358.738 267.835 358.738Z" fill="#1FA884" fill-opacity="0.5" style="mix-blend-mode:darken"/>
<path d="M267.835 219.242C264.999 219.242 262.73 221.551 262.73 224.353C262.73 227.156 265.037 229.465 267.835 229.465C270.671 229.465 272.94 227.156 272.94 224.353C272.94 221.551 270.671 219.242 267.835 219.242Z" fill="#1FA884" fill-opacity="0.5" style="mix-blend-mode:darken"/>
<path d="M267.835 318.866C264.999 318.866 262.73 321.176 262.73 323.978C262.73 326.818 265.037 329.09 267.835 329.09C270.671 329.09 272.94 326.78 272.94 323.978C272.94 321.176 270.671 318.866 267.835 318.866Z" fill="#1FA884" fill-opacity="0.5" style="mix-blend-mode:darken"/>
<path d="M267.835 259.076C264.999 259.076 262.73 261.386 262.73 264.188C262.73 267.028 265.037 269.3 267.835 269.3C270.671 269.3 272.94 266.99 272.94 264.188C272.94 261.386 270.671 259.076 267.835 259.076Z" fill="#1FA884" fill-opacity="0.5" style="mix-blend-mode:darken"/>
<path d="M267.835 298.949C264.999 298.949 262.73 301.258 262.73 304.061C262.73 306.9 265.037 309.172 267.835 309.172C270.671 309.172 272.94 306.863 272.94 304.061C272.94 301.258 270.671 298.949 267.835 298.949Z" fill="#1FA884" fill-opacity="0.5" style="mix-blend-mode:darken"/>
<path d="M267.835 279.031C264.999 279.031 262.73 281.341 262.73 284.143C262.73 286.983 265.037 289.255 267.835 289.255C270.671 289.255 272.94 286.945 272.94 284.143C272.94 281.303 270.671 279.031 267.835 279.031Z" fill="#1FA884" fill-opacity="0.5" style="mix-blend-mode:darken"/>
<path d="M267.835 239.159C264.999 239.159 262.73 241.469 262.73 244.271C262.73 247.073 265.037 249.383 267.835 249.383C270.671 249.383 272.94 247.073 272.94 244.271C272.94 241.469 270.671 239.159 267.835 239.159Z" fill="#1FA884" fill-opacity="0.5" style="mix-blend-mode:darken"/>
<path d="M267.835 139.497C264.999 139.497 262.73 141.807 262.73 144.609C262.73 147.449 265.037 149.72 267.835 149.72C270.671 149.72 272.94 147.411 272.94 144.609C272.94 141.807 270.671 139.497 267.835 139.497Z" fill="#1FA884" fill-opacity="0.5" style="mix-blend-mode:darken"/>
<path d="M267.835 199.286C264.999 199.286 262.73 201.596 262.73 204.398C262.73 207.2 265.037 209.51 267.835 209.51C270.671 209.51 272.94 207.2 272.94 204.398C272.94 201.596 270.671 199.286 267.835 199.286Z" fill="#1FA884" fill-opacity="0.5" style="mix-blend-mode:darken"/>
<path d="M267.835 119.579C264.999 119.579 262.73 121.889 262.73 124.691C262.73 127.531 265.037 129.803 267.835 129.803C270.671 129.803 272.94 127.493 272.94 124.691C272.94 121.889 270.671 119.579 267.835 119.579Z" fill="#1FA884" fill-opacity="0.5" style="mix-blend-mode:darken"/>
<path d="M267.835 179.369C264.999 179.369 262.73 181.679 262.73 184.481C262.73 187.321 265.037 189.593 267.835 189.593C270.671 189.593 272.94 187.283 272.94 184.481C272.94 181.679 270.671 179.369 267.835 179.369Z" fill="#1FA884" fill-opacity="0.5" style="mix-blend-mode:darken"/>
<path d="M267.835 159.452C264.999 159.452 262.73 161.762 262.73 164.564C262.73 167.404 265.037 169.676 267.835 169.676C270.671 169.676 272.94 167.366 272.94 164.564C272.94 161.724 270.671 159.452 267.835 159.452Z" fill="#1FA884" fill-opacity="0.5" style="mix-blend-mode:darken"/>
<path d="M249.079 259.076C246.243 259.076 243.974 261.386 243.974 264.188C243.974 267.028 246.281 269.3 249.079 269.3C251.877 269.3 254.184 266.99 254.184 264.188C254.184 261.386 251.877 259.076 249.079 259.076Z" fill="#1FA884" fill-opacity="0.5" style="mix-blend-mode:darken"/>
<path d="M249.079 179.369C246.243 179.369 243.974 181.679 243.974 184.481C243.974 187.321 246.281 189.593 249.079 189.593C251.877 189.593 254.184 187.283 254.184 184.481C254.184 181.679 251.877 179.369 249.079 179.369Z" fill="#1FA884" fill-opacity="0.5" style="mix-blend-mode:darken"/>
<path d="M249.079 199.286C246.243 199.286 243.974 201.596 243.974 204.398C243.974 207.2 246.281 209.51 249.079 209.51C251.877 209.51 254.184 207.2 254.184 204.398C254.184 201.596 251.877 199.286 249.079 199.286Z" fill="#1FA884" fill-opacity="0.5" style="mix-blend-mode:darken"/>
<path d="M249.079 219.242C246.243 219.242 243.974 221.551 243.974 224.353C243.974 227.156 246.281 229.465 249.079 229.465C251.877 229.465 254.184 227.156 254.184 224.353C254.184 221.551 251.877 219.242 249.079 219.242Z" fill="#1FA884" fill-opacity="0.5" style="mix-blend-mode:darken"/>
<path d="M267.835 99.6622C264.999 99.6622 262.73 101.972 262.73 104.774C262.73 107.614 265.037 109.886 267.835 109.886C270.671 109.886 272.94 107.576 272.94 104.774C272.94 101.934 270.671 99.6622 267.835 99.6622Z" fill="#1FA884" fill-opacity="0.5" style="mix-blend-mode:darken"/>
<path d="M249.079 239.159C246.243 239.159 243.974 241.469 243.974 244.271C243.974 247.073 246.281 249.383 249.079 249.383C251.877 249.383 254.184 247.073 254.184 244.271C254.184 241.469 251.877 239.159 249.079 239.159Z" fill="#1FA884" fill-opacity="0.5" style="mix-blend-mode:darken"/>
<path d="M249.079 99.6622C246.243 99.6622 243.974 101.972 243.974 104.774C243.974 107.614 246.281 109.886 249.079 109.886C251.877 109.886 254.184 107.576 254.184 104.774C254.184 101.934 251.877 99.6622 249.079 99.6622Z" fill="#1FA884" fill-opacity="0.5" style="mix-blend-mode:darken"/>
<path d="M249.079 159.452C246.243 159.452 243.974 161.762 243.974 164.564C243.974 167.404 246.281 169.676 249.079 169.676C251.877 169.676 254.184 167.366 254.184 164.564C254.184 161.724 251.877 159.452 249.079 159.452Z" fill="#1FA884" fill-opacity="0.5" style="mix-blend-mode:darken"/>
<path d="M249.079 279.031C246.243 279.031 243.974 281.341 243.974 284.143C243.974 286.983 246.281 289.255 249.079 289.255C251.877 289.255 254.184 286.945 254.184 284.143C254.184 281.303 251.877 279.031 249.079 279.031Z" fill="#1FA884" fill-opacity="0.5" style="mix-blend-mode:darken"/>
<path d="M267.835 338.821C264.999 338.821 262.73 341.131 262.73 343.933C262.73 346.773 265.037 349.045 267.835 349.045C270.671 349.045 272.94 346.735 272.94 343.933C272.94 341.093 270.671 338.821 267.835 338.821Z" fill="#1FA884" fill-opacity="0.5" style="mix-blend-mode:darken"/>
<path d="M249.079 139.497C246.243 139.497 243.974 141.807 243.974 144.609C243.974 147.449 246.281 149.72 249.079 149.72C251.877 149.72 254.184 147.411 254.184 144.609C254.184 141.807 251.877 139.497 249.079 139.497Z" fill="#1FA884" fill-opacity="0.5" style="mix-blend-mode:darken"/>
<path d="M249.079 119.579C246.243 119.579 243.974 121.889 243.974 124.691C243.974 127.531 246.281 129.803 249.079 129.803C251.877 129.803 254.184 127.493 254.184 124.691C254.184 121.889 251.877 119.579 249.079 119.579Z" fill="#1FA884" fill-opacity="0.5" style="mix-blend-mode:darken"/>
<path d="M286.59 309.172C289.41 309.172 291.695 306.884 291.695 304.061C291.695 301.237 289.41 298.949 286.59 298.949C283.771 298.949 281.486 301.237 281.486 304.061C281.486 306.884 283.771 309.172 286.59 309.172Z" fill="#1FA884" fill-opacity="0.5" style="mix-blend-mode:darken"/>
<path d="M286.59 149.758C289.41 149.758 291.695 147.47 291.695 144.646C291.695 141.823 289.41 139.535 286.59 139.535C283.771 139.535 281.486 141.823 281.486 144.646C281.486 147.47 283.771 149.758 286.59 149.758Z" fill="#1FA884" fill-opacity="0.5" style="mix-blend-mode:darken"/>
<path d="M286.59 79.707C283.754 79.707 281.486 82.0168 281.486 84.8189C281.486 87.6588 283.792 89.9307 286.59 89.9307C289.426 89.9307 291.695 87.6209 291.695 84.8189C291.733 82.0168 289.426 79.707 286.59 79.707Z" fill="#1FA884" fill-opacity="0.5" style="mix-blend-mode:darken"/>
<path d="M286.59 109.886C289.41 109.886 291.695 107.597 291.695 104.774C291.695 101.951 289.41 99.6622 286.59 99.6622C283.771 99.6622 281.486 101.951 281.486 104.774C281.486 107.597 283.771 109.886 286.59 109.886Z" fill="#1FA884" fill-opacity="0.5" style="mix-blend-mode:darken"/>
<path d="M286.59 129.803C289.41 129.803 291.695 127.515 291.695 124.691C291.695 121.868 289.41 119.579 286.59 119.579C283.771 119.579 281.486 121.868 281.486 124.691C281.486 127.515 283.771 129.803 286.59 129.803Z" fill="#1FA884" fill-opacity="0.5" style="mix-blend-mode:darken"/>
<path d="M305.346 358.738C302.51 358.738 300.241 361.048 300.241 363.85C300.241 366.69 302.548 368.962 305.346 368.962C308.144 368.962 310.451 366.652 310.451 363.85C310.489 361.048 308.182 358.738 305.346 358.738Z" fill="#1FA884" fill-opacity="0.5" style="mix-blend-mode:darken"/>
<path d="M286.59 59.7897C283.754 59.7897 281.486 62.0995 281.486 64.9016C281.486 67.7415 283.792 70.0134 286.59 70.0134C289.426 70.0134 291.695 67.7036 291.695 64.9016C291.733 62.0995 289.426 59.7897 286.59 59.7897Z" fill="#1FA884" fill-opacity="0.5" style="mix-blend-mode:darken"/>
<path d="M305.346 259.076C302.51 259.076 300.241 261.386 300.241 264.188C300.241 267.028 302.548 269.3 305.346 269.3C308.144 269.3 310.451 266.99 310.451 264.188C310.489 261.386 308.182 259.076 305.346 259.076Z" fill="#1FA884" fill-opacity="0.5" style="mix-blend-mode:darken"/>
<path d="M305.346 279.031C302.51 279.031 300.241 281.341 300.241 284.143C300.241 286.983 302.548 289.255 305.346 289.255C308.144 289.255 310.451 286.945 310.451 284.143C310.489 281.303 308.182 279.031 305.346 279.031Z" fill="#1FA884" fill-opacity="0.5" style="mix-blend-mode:darken"/>
<path d="M305.346 298.949C302.51 298.949 300.241 301.258 300.241 304.061C300.241 306.9 302.548 309.172 305.346 309.172C308.144 309.172 310.451 306.863 310.451 304.061C310.489 301.258 308.182 298.949 305.346 298.949Z" fill="#1FA884" fill-opacity="0.5" style="mix-blend-mode:darken"/>
<path d="M267.835 79.707C264.999 79.707 262.73 82.0168 262.73 84.8189C262.73 87.6588 265.037 89.9307 267.835 89.9307C270.671 89.9307 272.94 87.6209 272.94 84.8189C272.94 82.0168 270.671 79.707 267.835 79.707Z" fill="#1FA884" fill-opacity="0.5" style="mix-blend-mode:darken"/>
<path d="M305.346 318.866C302.51 318.866 300.241 321.176 300.241 323.978C300.241 326.818 302.548 329.09 305.346 329.09C308.144 329.09 310.451 326.78 310.451 323.978C310.489 321.176 308.182 318.866 305.346 318.866Z" fill="#1FA884" fill-opacity="0.5" style="mix-blend-mode:darken"/>
<path d="M305.346 338.821C302.51 338.821 300.241 341.131 300.241 343.933C300.241 346.773 302.548 349.045 305.346 349.045C308.144 349.045 310.451 346.735 310.451 343.933C310.489 341.093 308.182 338.821 305.346 338.821Z" fill="#1FA884" fill-opacity="0.5" style="mix-blend-mode:darken"/>
<path d="M286.59 159.452C283.754 159.452 281.486 161.762 281.486 164.564C281.486 167.404 283.792 169.676 286.59 169.676C289.426 169.676 291.695 167.366 291.695 164.564C291.733 161.724 289.426 159.452 286.59 159.452Z" fill="#1FA884" fill-opacity="0.5" style="mix-blend-mode:darken"/>
<path d="M305.346 239.159C302.51 239.159 300.241 241.469 300.241 244.271C300.241 247.073 302.548 249.383 305.346 249.383C308.144 249.383 310.451 247.073 310.451 244.271C310.451 241.469 308.182 239.159 305.346 239.159Z" fill="#1FA884" fill-opacity="0.5" style="mix-blend-mode:darken"/>
<path d="M286.59 358.738C283.754 358.738 281.486 361.048 281.486 363.85C281.486 366.69 283.792 368.962 286.59 368.962C289.426 368.962 291.695 366.652 291.695 363.85C291.733 361.048 289.426 358.738 286.59 358.738Z" fill="#1FA884" fill-opacity="0.5" style="mix-blend-mode:darken"/>
<path d="M286.59 349.045C289.41 349.045 291.695 346.756 291.695 343.933C291.695 341.11 289.41 338.821 286.59 338.821C283.771 338.821 281.486 341.11 281.486 343.933C281.486 346.756 283.771 349.045 286.59 349.045Z" fill="#1FA884" fill-opacity="0.5" style="mix-blend-mode:darken"/>
<path d="M286.59 279.031C283.754 279.031 281.486 281.341 281.486 284.143C281.486 286.983 283.792 289.255 286.59 289.255C289.426 289.255 291.695 286.945 291.695 284.143C291.733 281.303 289.426 279.031 286.59 279.031Z" fill="#1FA884" fill-opacity="0.5" style="mix-blend-mode:darken"/>
<path d="M286.59 329.128C289.41 329.128 291.695 326.839 291.695 324.016C291.695 321.192 289.41 318.904 286.59 318.904C283.771 318.904 281.486 321.192 281.486 324.016C281.486 326.839 283.771 329.128 286.59 329.128Z" fill="#1FA884" fill-opacity="0.5" style="mix-blend-mode:darken"/>
<path d="M286.59 179.369C283.754 179.369 281.486 181.679 281.486 184.481C281.486 187.321 283.792 189.593 286.59 189.593C289.426 189.593 291.695 187.283 291.695 184.481C291.733 181.679 289.426 179.369 286.59 179.369Z" fill="#1FA884" fill-opacity="0.5" style="mix-blend-mode:darken"/>
<path d="M286.59 259.076C283.754 259.076 281.486 261.386 281.486 264.188C281.486 267.028 283.792 269.3 286.59 269.3C289.426 269.3 291.695 266.99 291.695 264.188C291.733 261.386 289.426 259.076 286.59 259.076Z" fill="#1FA884" fill-opacity="0.5" style="mix-blend-mode:darken"/>
<path d="M286.59 199.286C283.754 199.286 281.486 201.596 281.486 204.398C281.486 207.2 283.792 209.51 286.59 209.51C289.426 209.51 291.695 207.2 291.695 204.398C291.695 201.596 289.426 199.286 286.59 199.286Z" fill="#1FA884" fill-opacity="0.5" style="mix-blend-mode:darken"/>
<path d="M286.59 219.242C283.754 219.242 281.486 221.551 281.486 224.353C281.486 227.156 283.792 229.465 286.59 229.465C289.426 229.465 291.695 227.156 291.695 224.353C291.695 221.551 289.426 219.242 286.59 219.242Z" fill="#1FA884" fill-opacity="0.5" style="mix-blend-mode:darken"/>
<path d="M286.59 239.159C283.754 239.159 281.486 241.469 281.486 244.271C281.486 247.073 283.792 249.383 286.59 249.383C289.426 249.383 291.695 247.073 291.695 244.271C291.695 241.469 289.426 239.159 286.59 239.159Z" fill="#1FA884" fill-opacity="0.5" style="mix-blend-mode:darken"/>
</g>
</svg>
