<svg xmlns="http://www.w3.org/2000/svg" viewBox="0 0 1101.18 242.75"><defs><style>.cls-1{fill:#da1585;}.cls-2{fill:#1fa884;}</style></defs><g id="Layer_2" data-name="Layer 2"><g id="Layer_1-2" data-name="Layer 1"><path d="M404.69,97.42a38.91,38.91,0,0,1-11.23,10.11q-6.31,3.72-15.39,3.72A30.88,30.88,0,0,1,363.42,108a29.71,29.71,0,0,1-10.19-8.77,38.23,38.23,0,0,1-6-12.72,58,58,0,0,1-1.93-15.1q0-19.64,9.15-30.56T379.71,29.9a33.59,33.59,0,0,1,12.79,2.68q6.54,2.67,12.19,10.11v-40h8.63V108.87h-8.63Zm.45-29.89a58.5,58.5,0,0,0-.6-9,29.56,29.56,0,0,0-1.78-6.69,17.68,17.68,0,0,0-3.2-5.14,37.07,37.07,0,0,0-4.68-4.31,26,26,0,0,0-7.07-3.87,24.72,24.72,0,0,0-8-1.19,26.79,26.79,0,0,0-10.11,1.86,20.07,20.07,0,0,0-8,5.88,29.42,29.42,0,0,0-5.28,10.41,54.53,54.53,0,0,0-1.93,15.62,49.09,49.09,0,0,0,2.16,15.69A28.72,28.72,0,0,0,362.3,96.9a19.41,19.41,0,0,0,7.66,5.36,24.64,24.64,0,0,0,8.56,1.56,30.21,30.21,0,0,0,8.25-1,24.37,24.37,0,0,0,7.51-3.87,25.81,25.81,0,0,0,8-9.82q2.83-5.94,2.83-14.87Z"/><path d="M434.59,2.68h9.81V15.62h-9.81Zm.59,29.6h8.63v76.59h-8.63Z"/><path d="M471.92,117.2q1.63,7.59,7.14,11.23t16.8,3.64q12.64,0,18.59-6.17t5.95-20.74V93.7A34.59,34.59,0,0,1,509.17,104a30.84,30.84,0,0,1-15.39,3.64,31.92,31.92,0,0,1-14.72-3.19,29.41,29.41,0,0,1-10.27-8.56,36.86,36.86,0,0,1-6-12.27,53,53,0,0,1-1.93-14.35,51.92,51.92,0,0,1,2.38-16.21,35.37,35.37,0,0,1,6.84-12.42,30.64,30.64,0,0,1,10.86-8,35.39,35.39,0,0,1,14.43-2.82,33.23,33.23,0,0,1,12.93,2.75q6.55,2.74,12,10V32.28H529v73.77q0,15.47-8,24.39T496,139.36a58.34,58.34,0,0,1-12.12-1.19,31,31,0,0,1-9.82-3.79,21.3,21.3,0,0,1-6.91-6.84,24.59,24.59,0,0,1-3.42-10.34ZM520.7,67.53a66.8,66.8,0,0,0-.52-9,25.11,25.11,0,0,0-1.79-6.69,20.07,20.07,0,0,0-3.19-5.14,33.19,33.19,0,0,0-4.61-4.31,28.73,28.73,0,0,0-7.14-3.87,24.1,24.1,0,0,0-7.89-1.19,27.75,27.75,0,0,0-10.11,1.79,20.49,20.49,0,0,0-8,5.65,27.4,27.4,0,0,0-5.36,9.89,48.08,48.08,0,0,0-1.93,14.5,42.29,42.29,0,0,0,2.16,14.5,27.33,27.33,0,0,0,5.58,9.52,20.48,20.48,0,0,0,7.73,5.28,24.55,24.55,0,0,0,8.77,1.64,29,29,0,0,0,8.33-1A27.07,27.07,0,0,0,510,95.34a25.2,25.2,0,0,0,8-9.89q2.74-6,2.75-15.1Z"/><path d="M549,2.68h9.81V15.62H549Zm.59,29.6h8.63v76.59h-8.63Z"/><path d="M584.8,39.42H572.9V32.28h11.9V11.16h8.62V32.28h21.72v7.14H593.42V89.54a18.29,18.29,0,0,0,2.38,9.59q2.38,3.95,8.33,3.94a31.25,31.25,0,0,0,6.55-.59,40.29,40.29,0,0,0,4.76-1.34l1.78,7a39.36,39.36,0,0,1-5.43,1.64,38.73,38.73,0,0,1-8.4.74q-6.55,0-10.26-2.23a14.45,14.45,0,0,1-5.58-5.88,23.12,23.12,0,0,1-2.31-8.4q-.43-4.75-.44-10Z"/><path d="M679.68,98a36.13,36.13,0,0,1-4.61,4.68,31.6,31.6,0,0,1-6.09,4.09,35.29,35.29,0,0,1-7.51,2.83,36.69,36.69,0,0,1-9,1q-12,0-19.34-5.8T625.84,87.6q0-7.72,3.28-12.64a23,23,0,0,1,8.7-7.73,40.54,40.54,0,0,1,12.34-3.94,117.44,117.44,0,0,1,14.35-1.41l14.88-.6V58.9q0-11.3-4.39-16.51t-15.69-5.2a41,41,0,0,0-9.3.89,18.88,18.88,0,0,0-6.32,2.6,14.07,14.07,0,0,0-4,4,17.29,17.29,0,0,0-2.23,5.13l-7.89-1.19q4.17-18.75,30.05-18.74a41.13,41.13,0,0,1,13.53,1.93A21.35,21.35,0,0,1,682,37.41a21.6,21.6,0,0,1,4.83,8.92,44.87,44.87,0,0,1,1.49,12.12v50.42h-8.63Zm-.14-29.9-14.13.6A83.19,83.19,0,0,0,651,70.28a28.31,28.31,0,0,0-9.37,3.57,13.59,13.59,0,0,0-5.13,5.65,18.68,18.68,0,0,0-1.56,8q0,7,3.94,11.22t13.76,4.24a43.44,43.44,0,0,0,9.74-1.11,19.37,19.37,0,0,0,7.95-3.65,31.29,31.29,0,0,0,4.39-3.71,17.26,17.26,0,0,0,2.83-3.94,16.47,16.47,0,0,0,1.56-4.84,38.12,38.12,0,0,0,.45-6.25Z"/><path d="M708.88,2.68h8.63V108.87h-8.63Z"/><path d="M412.58,212.71q-2.24,12.93-10.27,20.15t-21.86,7.21a38.13,38.13,0,0,1-14.87-2.75,28.74,28.74,0,0,1-11-8,36.8,36.8,0,0,1-6.84-12.72,54.89,54.89,0,0,1-2.38-16.8,53.32,53.32,0,0,1,2.53-17A37.75,37.75,0,0,1,355,169.87a30.91,30.91,0,0,1,11.23-8.25,36.9,36.9,0,0,1,14.94-2.9q12.65,0,20.16,6.47t9.89,18.22l-8.33,2.08a37.55,37.55,0,0,0-2.53-7.74,21,21,0,0,0-4.16-6.09,18.18,18.18,0,0,0-6.33-4,24.57,24.57,0,0,0-9-1.49,25.77,25.77,0,0,0-11.9,2.53,23.49,23.49,0,0,0-8.18,6.92,28.66,28.66,0,0,0-4.76,10.48,59.57,59.57,0,0,0,0,26.48,31.07,31.07,0,0,0,4.61,10.56,21.78,21.78,0,0,0,8.1,7,26.19,26.19,0,0,0,12,2.53q11.14,0,16.28-5.43t6.92-14.5Z"/><path d="M459.13,240.07a38.18,38.18,0,0,1-15.1-2.82,30.18,30.18,0,0,1-11.16-8.11,37.22,37.22,0,0,1-7-12.72,53.06,53.06,0,0,1-2.45-16.65,52.19,52.19,0,0,1,2.6-17,38.35,38.35,0,0,1,7.29-12.94,31.54,31.54,0,0,1,11.38-8.25,37.47,37.47,0,0,1,15-2.9,38.33,38.33,0,0,1,15,2.82,30.72,30.72,0,0,1,11.31,8.11,36.53,36.53,0,0,1,7.06,12.72,52.3,52.3,0,0,1,2.45,16.5,53.61,53.61,0,0,1-2.52,17,37.94,37.94,0,0,1-7.22,13,31,31,0,0,1-11.45,8.33A38.21,38.21,0,0,1,459.13,240.07Zm.29-7.43A26.68,26.68,0,0,0,471.77,230,23.58,23.58,0,0,0,480.1,223a29.61,29.61,0,0,0,4.76-10.56,55.87,55.87,0,0,0,1.48-13.24,53.54,53.54,0,0,0-1.48-12.86,29.66,29.66,0,0,0-4.76-10.49,23.58,23.58,0,0,0-8.33-7.06,30.33,30.33,0,0,0-24.62,0,22.66,22.66,0,0,0-8.33,7.06,30.27,30.27,0,0,0-4.68,10.49,54.2,54.2,0,0,0-1.49,13,55.18,55.18,0,0,0,1.49,13.09A30.21,30.21,0,0,0,438.82,223a22.66,22.66,0,0,0,8.33,7.06A26.77,26.77,0,0,0,459.42,232.64Z"/><path d="M509.84,161.1h8.63v12.64a40.62,40.62,0,0,1,12.12-11.3,26.12,26.12,0,0,1,13.16-3.72q8.78,0,14.06,3.94a23,23,0,0,1,7.8,11.08,38.51,38.51,0,0,1,12.2-11.08,30.07,30.07,0,0,1,15-3.94q11,0,17.25,5.95t6.25,19v54H607.7V186.83a41.75,41.75,0,0,0-1-9.82,15.37,15.37,0,0,0-3-6.25,10.75,10.75,0,0,0-5-3.34,22.52,22.52,0,0,0-7-1,28.72,28.72,0,0,0-7.81,1.27,22.64,22.64,0,0,0-8.4,4.68,23.89,23.89,0,0,0-5.88,6.84,18.46,18.46,0,0,0-2.3,9.37v49.08h-8.63V187q0-11.16-3.87-15.84t-11.75-4.69a19.45,19.45,0,0,0-8.4,1.86,33.41,33.41,0,0,0-7.81,5.28c-.89.8-1.86,1.74-2.9,2.83a17.48,17.48,0,0,0-2.75,3.86,25,25,0,0,0-2.82,12.05v45.36h-8.63Z"/><path d="M634.77,161.1h8.63v12.64a40.74,40.74,0,0,1,12.12-11.3,26.12,26.12,0,0,1,13.16-3.72q8.77,0,14.06,3.94a23,23,0,0,1,7.8,11.08,38.51,38.51,0,0,1,12.2-11.08,30.07,30.07,0,0,1,15-3.94q11,0,17.25,5.95t6.25,19v54h-8.63V186.83a41.75,41.75,0,0,0-1-9.82,15.37,15.37,0,0,0-3-6.25,10.75,10.75,0,0,0-5-3.34,22.48,22.48,0,0,0-7-1,28.78,28.78,0,0,0-7.81,1.27,22.64,22.64,0,0,0-8.4,4.68,23.89,23.89,0,0,0-5.88,6.84,18.57,18.57,0,0,0-2.3,9.37v49.08H683.7V187q0-11.16-3.86-15.84t-11.75-4.69a19.47,19.47,0,0,0-8.41,1.86,33.41,33.41,0,0,0-7.81,5.28c-.89.8-1.85,1.74-2.9,2.83a17.82,17.82,0,0,0-2.75,3.86,25.29,25.29,0,0,0-2.82,12.05v45.36h-8.63Z"/><path d="M788,240.07a38.25,38.25,0,0,1-15.1-2.82,30.07,30.07,0,0,1-11.15-8.11,37.06,37.06,0,0,1-7-12.72,52.77,52.77,0,0,1-2.45-16.65,51.92,51.92,0,0,1,2.6-17,38,38,0,0,1,7.29-12.94,31.51,31.51,0,0,1,11.37-8.25,37.52,37.52,0,0,1,15-2.9,38.33,38.33,0,0,1,15,2.82,30.61,30.61,0,0,1,11.3,8.11A36.55,36.55,0,0,1,822,182.37a52.59,52.59,0,0,1,2.45,16.5,53.32,53.32,0,0,1-2.53,17,38.08,38.08,0,0,1-7.21,13,31.09,31.09,0,0,1-11.45,8.33A38.29,38.29,0,0,1,788,240.07Zm.3-7.43A26.64,26.64,0,0,0,800.6,230a23.49,23.49,0,0,0,8.33-7.06,29.43,29.43,0,0,0,4.76-10.56,55.85,55.85,0,0,0,1.49-13.24,53.54,53.54,0,0,0-1.49-12.86,29.49,29.49,0,0,0-4.76-10.49,23.49,23.49,0,0,0-8.33-7.06,30.31,30.31,0,0,0-24.61,0,22.66,22.66,0,0,0-8.33,7.06A30.28,30.28,0,0,0,763,186.31a54.21,54.21,0,0,0-1.48,13A55.19,55.19,0,0,0,763,212.41,30.23,30.23,0,0,0,767.66,223,22.66,22.66,0,0,0,776,230,26.77,26.77,0,0,0,788.26,232.64Z"/><path d="M837.19,161.1h8.62v12.49q6.26-7.87,13.32-11.38a33.54,33.54,0,0,1,15.09-3.49q13.1,0,19.34,7.29t6.24,20.67v51h-8.62V189.06q0-12-4.32-17.33t-13.68-5.28a29.11,29.11,0,0,0-9.44,1.71,25.11,25.11,0,0,0-9,5.43,29.08,29.08,0,0,0-6.69,8q-2.24,4.09-2.24,11.23v44.91h-8.62Z"/><path d="M978.63,217.61a26.12,26.12,0,0,1-9.52,16.22q-7.74,6.24-22,6.24-16.51,0-25.66-10.63t-9.14-29.23a55.73,55.73,0,0,1,2.6-17.84,37,37,0,0,1,7.29-13,30.35,30.35,0,0,1,11-7.95,35.24,35.24,0,0,1,13.91-2.68,35.92,35.92,0,0,1,15.17,2.9,27.54,27.54,0,0,1,10.19,7.88,31.82,31.82,0,0,1,5.72,11.83A58.1,58.1,0,0,1,980,196.05v5.5h-58.9a44.06,44.06,0,0,0,1.64,12.27,29.32,29.32,0,0,0,4.9,10,23.51,23.51,0,0,0,8.18,6.69,24.93,24.93,0,0,0,11.31,2.45,37.23,37.23,0,0,0,9.81-1.11,19.07,19.07,0,0,0,6.7-3.2,16.57,16.57,0,0,0,4.24-4.83,25.71,25.71,0,0,0,2.45-6.18ZM971,194.12a45.68,45.68,0,0,0-1.34-11.46,25.43,25.43,0,0,0-4.16-9,18.6,18.6,0,0,0-7.44-5.88,26.53,26.53,0,0,0-11-2.08q-11.16,0-17.85,7t-8,21.42Z"/><path d="M995.73,161.1h8.63v12.49a35,35,0,0,1,10.56-10.11,24.15,24.15,0,0,1,12.64-3.57c1.09,0,2.11,0,3,.07a26,26,0,0,1,3.05.37l-1,8.18a30.88,30.88,0,0,0-4.91-.44,23.64,23.64,0,0,0-7.88,1.41,21.24,21.24,0,0,0-7.59,4.83,24.79,24.79,0,0,0-5.65,7.22,21.22,21.22,0,0,0-2.23,10v46.1h-8.63Z"/><path d="M1047.19,216.42q1.63,8.93,7.59,12.65t17,3.71q11.16,0,15.77-4.16a13.45,13.45,0,0,0,4.61-10.41,19.7,19.7,0,0,0-.6-5,10.22,10.22,0,0,0-2.3-4.24,13.25,13.25,0,0,0-4.91-3.27,38.94,38.94,0,0,0-8.26-2.23l-9.37-1.49a87,87,0,0,1-10.93-2.53,27.43,27.43,0,0,1-8.18-3.94,15.72,15.72,0,0,1-5-6.1,21.13,21.13,0,0,1-1.71-9,18.71,18.71,0,0,1,2.23-9.14,20.18,20.18,0,0,1,6.09-6.85,29.45,29.45,0,0,1,9.15-4.23,41.86,41.86,0,0,1,11.38-1.49,47.2,47.2,0,0,1,13.16,1.56,25,25,0,0,1,8.63,4.24,19.53,19.53,0,0,1,5.2,6.24,35.56,35.56,0,0,1,2.9,7.59l-7.88,1.64a32.45,32.45,0,0,0-2.75-6,14.42,14.42,0,0,0-3.94-4.31,17.23,17.23,0,0,0-6-2.6,37.26,37.26,0,0,0-8.92-.9,38,38,0,0,0-10,1.12,18.2,18.2,0,0,0-6.47,3,11,11,0,0,0-3.49,4.46,13.47,13.47,0,0,0-1.05,5.21,18,18,0,0,0,.6,4.83,7.89,7.89,0,0,0,2.38,3.79,15.1,15.1,0,0,0,5,2.83,47.8,47.8,0,0,0,8.41,2.08l11.74,1.93q12.06,2.09,18,7.22t6,15.69a20,20,0,0,1-1.86,8.48,18.94,18.94,0,0,1-5.5,6.91,27.66,27.66,0,0,1-9.15,4.61,42.62,42.62,0,0,1-12.64,1.71,57.53,57.53,0,0,1-12.87-1.34,31,31,0,0,1-10.18-4.16,22.15,22.15,0,0,1-7-7.29,25.38,25.38,0,0,1-3.28-10.86Z"/><path class="cls-1" d="M208.85,242.75c-17.41,0-32.9-2.92-46-8.68A94.36,94.36,0,0,1,146,224.54a87.85,87.85,0,0,1-16.09-14.77,97.41,97.41,0,0,1-12.62-19.23,119.68,119.68,0,0,1-7.48-18.94c-4.55-15.06-6.86-32-6.86-50.22,0-18.9,2.52-36,7.49-50.94a124.87,124.87,0,0,1,6.43-15.7,46.44,46.44,0,0,1,15.93,12.7,58.06,58.06,0,0,1,10.41,22.29,123,123,0,0,1,3.28,24.94c-.09,2.49-.13,4.63-.13,6.71,0,1.75,0,3.57.09,5.58.71,24.81,6.34,44.49,16.73,58.49a58.88,58.88,0,0,0,15.8,14.92c8.79,5.55,19.08,8.37,30.58,8.37,16.67,0,29.24-4.5,37.36-13.37,7.2-7.86,12-18.83,14.18-32.61h44.83a105.31,105.31,0,0,1-8,29.12,82.64,82.64,0,0,1-18.79,26.76,84.39,84.39,0,0,1-29.34,17.67C238.11,240.59,224.35,242.75,208.85,242.75Z"/><path class="cls-1" d="M1.13,236.71V203.12H63.26V203H78.88c12.28,0,23.14-1.64,32.28-4.87a105.17,105.17,0,0,0,11.89,17.39,97.43,97.43,0,0,0,11.61,11.55c-1.93.76-3.89,1.47-5.85,2.12-14.9,5-32,7.49-50.94,7.49Z"/><path class="cls-2" d="M21.64,190.66A21.64,21.64,0,1,1,43.28,169,21.66,21.66,0,0,1,21.64,190.66Z"/><path class="cls-1" d="M180.17,190.33a52.88,52.88,0,0,1-9.85-10.2c-9.26-12.48-14.3-30.41-15-53.3.1-2.32.15-4.45.15-6.46,0-1.79,0-3.66-.11-5.88a132.25,132.25,0,0,0-3.54-26.91c-2.5-10.08-6.56-18.73-12.08-25.7a56,56,0,0,0-21.68-16.41c-.53-.24-1.08-.47-1.63-.68-8.38-3.37-18.55-5.07-30.2-5.07H42.19v95.35H1.13V6H86.26c22.44,0,42,3.88,58,11.54a92.37,92.37,0,0,1,24.62,17.06A84.32,84.32,0,0,1,179.33,47c12.55,18.18,18.91,42.74,18.91,73,0,19.28-2.78,36.36-8.26,50.77A105.24,105.24,0,0,1,180.17,190.33Z"/><path class="cls-1" d="M258.73,71c-2.88-9.36-7.07-17.22-12.45-23.38-7.9-9-20.27-13.6-36.76-13.6a62.84,62.84,0,0,0-25.08,4.81,91.79,91.79,0,0,0-9.32-10.6,100.41,100.41,0,0,0-20-15A96.75,96.75,0,0,1,165,8.37C178,2.82,193,0,209.52,0c14.65,0,27.55,1.84,38.34,5.47A73.73,73.73,0,0,1,274.77,21a78.16,78.16,0,0,1,17.62,24.45A127.24,127.24,0,0,1,301,71Z"/></g></g></svg>