<svg xmlns="http://www.w3.org/2000/svg" viewBox="0 0 371.07 294.48"><defs><style>.cls-1{fill:#fff;}.cls-2{fill:#da1585;}</style></defs><g id="Layer_2" data-name="Layer 2"><g id="Layer_1-2" data-name="Layer 1"><path class="cls-1" d="M253.36,294.48c-21.13,0-39.91-3.54-55.84-10.53a115.23,115.23,0,0,1-20.46-11.55,106.86,106.86,0,0,1-19.51-17.93,118.16,118.16,0,0,1-15.31-23.33,143.92,143.92,0,0,1-9.08-23c-5.52-18.26-8.32-38.76-8.32-60.92,0-22.93,3.06-43.72,9.09-61.79a148.17,148.17,0,0,1,7.8-19,56.18,56.18,0,0,1,19.32,15.4c5.73,7.23,10,16.33,12.63,27a149,149,0,0,1,4,30.26c-.11,3-.16,5.62-.16,8.13,0,2.12,0,4.34.11,6.77.86,30.11,7.69,54,20.3,71a71.65,71.65,0,0,0,19.16,18.1c10.66,6.74,23.14,10.15,37.1,10.15,20.22,0,35.47-5.46,45.32-16.21,8.73-9.54,14.52-22.85,17.2-39.56h54.38a127.22,127.22,0,0,1-9.7,35.32,100.27,100.27,0,0,1-22.79,32.46C329,274.31,317,281.53,303,286.67S272.16,294.48,253.36,294.48Z"/><path class="cls-1" d="M1.37,287.16V246.41H76.74v-.11h19c14.9,0,28.07-2,39.15-5.91a128,128,0,0,0,14.43,21.09,117.93,117.93,0,0,0,14.08,14c-2.33.92-4.71,1.79-7.09,2.58-18.07,6-38.86,9.09-61.79,9.09Z"/><path class="cls-2" d="M26.25,231.29A26.25,26.25,0,1,1,52.5,205,26.28,26.28,0,0,1,26.25,231.29Z"/><path class="cls-1" d="M218.57,230.89a63.78,63.78,0,0,1-11.95-12.38c-11.24-15.14-17.35-36.89-18.17-64.65.13-2.82.19-5.4.19-7.84,0-2.18,0-4.44-.14-7.13a160,160,0,0,0-4.29-32.64c-3-12.23-8-22.72-14.66-31.18a68,68,0,0,0-26.29-19.92c-.65-.28-1.31-.55-2-.82-10.17-4.08-22.5-6.14-36.64-6.14H51.18V163.85H1.37V7.33H104.64c27.22,0,50.9,4.71,70.37,14A111.73,111.73,0,0,1,204.88,42a101.34,101.34,0,0,1,12.66,15c15.23,22.05,23,51.85,23,88.57,0,23.39-3.38,44.11-10,61.58A127.78,127.78,0,0,1,218.57,230.89Z"/><path class="cls-1" d="M313.86,86.13c-3.49-11.35-8.57-20.89-15.1-28.36-9.59-11-24.59-16.51-44.59-16.51a76,76,0,0,0-30.42,5.85,111.51,111.51,0,0,0-11.31-12.86A121.64,121.64,0,0,0,188.24,16a116,116,0,0,1,11.88-5.88c15.8-6.74,34-10.15,54-10.15,17.77,0,33.42,2.23,46.51,6.64,12.92,4.35,23.9,10.67,32.65,18.78A94.87,94.87,0,0,1,354.7,55.09a153.63,153.63,0,0,1,10.4,31Z"/></g></g></svg>